<svg xmlns="http://www.w3.org/2000/svg" width="27.83" height="27.83" viewBox="0 0 27.83 27.83">
  <g id="Groupe_4233" data-name="Groupe 4233" transform="translate(0 0)">
    <path id="Icon_awesome-certificate" data-name="Icon awesome-certificate" d="M24.929,13.911l2.5-2.446a1.3,1.3,0,0,0-.58-2.193L23.443,8.4l.96-3.371a1.317,1.317,0,0,0-1.612-1.613l-3.37.96L18.552.973a1.3,1.3,0,0,0-2.192-.58L13.915,2.912,11.47.393a1.3,1.3,0,0,0-2.192.58L8.409,4.379l-3.37-.96A1.317,1.317,0,0,0,3.427,5.032L4.387,8.4.982,9.272A1.3,1.3,0,0,0,.4,11.464l2.5,2.446L.4,16.357a1.3,1.3,0,0,0,.58,2.193l3.405.869-.96,3.371A1.317,1.317,0,0,0,5.039,24.4l3.37-.96.869,3.407a1.292,1.292,0,0,0,2.192.58l2.446-2.5,2.445,2.5a1.3,1.3,0,0,0,2.192-.58l.869-3.407,3.37.96A1.317,1.317,0,0,0,24.4,22.79l-.96-3.371,3.405-.869a1.3,1.3,0,0,0,.58-2.193l-2.5-2.446Z" fill="#151515"/>
    <path id="Icon_feather-check" data-name="Icon feather-check" d="M14.4,9,8.624,14.774,6,12.149" transform="translate(3.629 2.253)" fill="none" stroke="#fff" stroke-linecap="round" stroke-linejoin="round" stroke-width="2.5"/>
  </g>
</svg>
