<svg xmlns="http://www.w3.org/2000/svg" width="32.06" height="34.697" viewBox="0 0 32.06 34.697">
  <path id="fi-rr-flame" d="M23.635,4.193C22.5,3.228,21.3,2.215,20.09,1.11A4.268,4.268,0,0,0,16.652.038a4.113,4.113,0,0,0-2.938,1.879,29.452,29.452,0,0,0-3.6,9.323,8.849,8.849,0,0,1-.688-1.178,2.891,2.891,0,0,0-4.771-.684A13.107,13.107,0,0,0,.914,18.661,15.874,15.874,0,0,0,12.8,34.176a16.844,16.844,0,0,0,4.013.509c.043,0,.085.012.129.012.189,0,.376-.016.562-.029a15.986,15.986,0,0,0,15.469-16C32.968,12.121,28.643,8.449,23.635,4.193ZM17.274,31.768c-.165,0-.33.017-.5.016a5.333,5.333,0,0,1-2.942-1.165,5.3,5.3,0,0,1-2.287-3.7c-.246-2.345,1.2-5.411,4.153-8.875h0a1.621,1.621,0,0,1,1.239-.567h0a1.574,1.574,0,0,1,1.219.564c2.706,3.212,4.193,6.176,4.193,8.346a5.407,5.407,0,0,1-5.074,5.381ZM25,29.034c-.085.066-.179.12-.266.184a8.249,8.249,0,0,0,.507-2.831c0-3.653-2.653-7.568-4.876-10.209a4.482,4.482,0,0,0-3.421-1.59h-.006a4.506,4.506,0,0,0-3.435,1.58h0c-3.535,4.14-5.158,7.86-4.826,11.057a7.48,7.48,0,0,0,.562,2.154A13.147,13.147,0,0,1,3.81,18.661a10.209,10.209,0,0,1,3.011-7.344,11.807,11.807,0,0,0,1.2,1.968A2.67,2.67,0,0,0,10.772,14.3a2.747,2.747,0,0,0,2.1-2.131A26.968,26.968,0,0,1,16.15,3.46a1.217,1.217,0,0,1,.88-.555,1.378,1.378,0,0,1,1.113.348C19.384,4.381,20.6,5.421,21.758,6.4c4.826,4.1,8.314,7.059,8.314,12.27a13.059,13.059,0,0,1-5.066,10.367Z" transform="translate(-0.914 0)" fill="#fff"/>
</svg>
