<svg xmlns="http://www.w3.org/2000/svg" width="27.465" height="27.465" viewBox="0 0 27.465 27.465">
  <path id="Icon_awesome-dribbble" data-name="Icon awesome-dribbble" d="M14.295.563A13.732,13.732,0,1,0,28.027,14.295,13.748,13.748,0,0,0,14.295.563ZM23.374,6.9A11.674,11.674,0,0,1,26.023,14.2a27.411,27.411,0,0,0-8.168-.378c-.319-.777-.619-1.461-1.031-2.3A15.625,15.625,0,0,0,23.374,6.9Zm-1.3-1.356a13.243,13.243,0,0,1-6.148,4.237,62.61,62.61,0,0,0-4.377-6.867A11.7,11.7,0,0,1,22.07,5.539ZM9.308,3.7a74.843,74.843,0,0,1,4.349,6.784A43.751,43.751,0,0,1,2.813,11.91,11.773,11.773,0,0,1,9.308,3.7ZM2.565,14.313c0-.12,0-.239.006-.358a43.268,43.268,0,0,0,12.055-1.669c.336.657.657,1.324.951,1.991a18.168,18.168,0,0,0-10,7.88A11.683,11.683,0,0,1,2.565,14.313ZM7.1,23.566c1.225-2.5,4.55-5.738,9.279-7.351a48.757,48.757,0,0,1,2.5,8.895A11.706,11.706,0,0,1,7.1,23.566Zm13.753.47a50.626,50.626,0,0,0-2.279-8.363,17.216,17.216,0,0,1,7.306.5,11.75,11.75,0,0,1-5.028,7.862Z" transform="translate(-0.563 -0.563)" fill="#151515"/>
</svg>
