<svg xmlns="http://www.w3.org/2000/svg" width="26.974" height="26.968" viewBox="0 0 26.974 26.968">
  <g id="Groupe_4888" data-name="Groupe 4888" transform="translate(-231.808 -4250)">
    <g id="Groupe_4836" data-name="Groupe 4836" transform="translate(231.808 4250)">
      <g id="Social_Icons" data-name="Social Icons" transform="translate(6.535 6.132)">
        <path id="LinkedIn" d="M11.168,13.578v-4.9c0-1.231-.441-2.072-1.543-2.072A1.667,1.667,0,0,0,8.062,7.719a2.087,2.087,0,0,0-.1.743v5.116H4.913s.041-8.3,0-9.161H7.961v1.3l-.021.03h.021v-.03A3.026,3.026,0,0,1,10.707,4.2c2.005,0,3.508,1.31,3.508,4.124v5.253Zm-10.987,0V4.416H3.228v9.161Zm1.5-10.411A1.588,1.588,0,1,1,1.724,0,1.588,1.588,0,1,1,1.7,3.166Z" transform="translate(0)" fill="#151515"/>
      </g>
      <path id="Icon_awesome-instagram" data-name="Icon awesome-instagram" d="M26.874,10.161A7.981,7.981,0,0,0,24.7,4.511a8.033,8.033,0,0,0-5.651-2.178c-2.227-.126-8.9-.126-11.127,0A8.022,8.022,0,0,0,2.268,4.5,8.007,8.007,0,0,0,.09,10.155c-.126,2.227-.126,8.9,0,11.127a7.981,7.981,0,0,0,2.178,5.651,8.044,8.044,0,0,0,5.651,2.178c2.227.126,8.9.126,11.127,0A7.981,7.981,0,0,0,24.7,26.933a8.033,8.033,0,0,0,2.178-5.651c.126-2.227.126-8.894,0-11.121ZM24,23.671a4.551,4.551,0,0,1-2.564,2.564c-1.775.7-5.988.542-7.949.542s-6.18.156-7.949-.542a4.551,4.551,0,0,1-2.564-2.564c-.7-1.775-.542-5.988-.542-7.949s-.156-6.18.542-7.949A4.551,4.551,0,0,1,5.535,5.209c1.775-.7,5.988-.542,7.949-.542s6.18-.156,7.949.542A4.551,4.551,0,0,1,24,7.772c.7,1.775.542,5.988.542,7.949S24.7,21.9,24,23.671Z" transform="translate(0.005 -2.238)" fill="#151515"/>
    </g>
  </g>
</svg>
