<svg id="Calque_1" data-name="Calque 1" xmlns="http://www.w3.org/2000/svg" xmlns:xlink="http://www.w3.org/1999/xlink" viewBox="0 0 500 500"><defs><style>.cls-1{fill:none;}.cls-2{fill:#a98f5e;}.cls-3{fill:#f4f1eb;}.cls-11,.cls-4{fill:#a88e5e;}.cls-4{opacity:0.1;}.cls-5{clip-path:url(#clip-path);}.cls-6{fill:#ccc0ae;}.cls-7{fill:#b7ac9c;}.cls-8{fill:#a3947f;}.cls-9{fill:#fff;}.cls-10{fill:#140d0b;}.cls-12,.cls-13{font-size:17.84px;}.cls-12,.cls-16{fill:#fff8f4;}.cls-12{font-family:Teko-Medium, Teko;font-weight:500;letter-spacing:0.05em;}.cls-13,.cls-15,.cls-17{fill:#a77658;}.cls-13{font-family:Lato-Bold, Lato;}.cls-13,.cls-16{font-weight:700;}.cls-14{letter-spacing:-0.03em;}.cls-16{font-size:53.43px;font-family:Teko-Bold, Teko;}.cls-17{opacity:0.9;font-size:18.98px;font-family:Lato-Regular, Lato;}.cls-18{fill:#d0ab8e;}.cls-19{fill:#a06c3b;}.cls-20{fill:#805334;}.cls-21{fill:#291d15;}.cls-22{fill:#0c0908;}.cls-23{fill:#343434;}.cls-24{fill:#8e6640;}.cls-25{fill:#a67658;}.cls-26{fill:#da1e2c;}.cls-27{fill:#8d552d;}.cls-28{fill:#b27641;}.cls-29{fill:#bc9980;}.cls-30{fill:#967c53;}.cls-31{fill:#f5f2ec;}.cls-32{fill:#473f34;}.cls-33{fill:#cfab90;}.cls-34{fill:#473f35;}</style><clipPath id="clip-path"><circle class="cls-1" cx="245.38" cy="220.89" r="190.14"/></clipPath></defs><path class="cls-2" d="M412.68,329.52a198.5,198.5,0,0,0,32.16-108.63c0-110.17-89.3-199.47-199.46-199.47S45.91,110.72,45.91,220.89A198.5,198.5,0,0,0,78.08,329.52,27.15,27.15,0,0,0,64.82,352.8v92.28A27.18,27.18,0,0,0,92,472.23H398.8a27.18,27.18,0,0,0,27.14-27.15V352.8A27.15,27.15,0,0,0,412.68,329.52Zm-2.41,115.56a11.48,11.48,0,0,1-11.47,11.47H92a11.48,11.48,0,0,1-11.47-11.47V352.8a11.47,11.47,0,0,1,6.71-10.4,199.47,199.47,0,0,0,316.36,0,11.47,11.47,0,0,1,6.71,10.4Z"/><path class="cls-3" d="M405.6,331.19a193.61,193.61,0,0,0,34.29-110.3c0-107.43-87.08-194.52-194.51-194.52S50.87,113.46,50.87,220.89a193.61,193.61,0,0,0,34.29,110.3A22.7,22.7,0,0,0,69.3,352.8v92.28A22.69,22.69,0,0,0,92,467.75H398.8a22.69,22.69,0,0,0,22.66-22.67V352.8A22.7,22.7,0,0,0,405.6,331.19Zm9.14,113.89A16,16,0,0,1,398.8,461H92A16,16,0,0,1,76,445.08V352.8a16,16,0,0,1,13.36-15.72,194.52,194.52,0,0,0,312,0,16,16,0,0,1,13.36,15.72Z"/><circle class="cls-4" cx="245.38" cy="220.89" r="190.14"/><g class="cls-5"><path class="cls-4" d="M481.33,257.72v26.5a30.25,30.25,0,0,1-1.59,9.67c-7.69,3.21-15.59,6.18-23.64,8.95-5.75,2-11.61,3.9-17.54,5.68-12.3,3.75-24.92,7.09-37.76,10.08q-5.66,1.33-11.31,2.56c-9.82,2.15-19.73,4.11-29.69,5.94h0c-37.11,6.78-74.9,11.61-110.75,16.21q-16.17,2.07-32.35,3.81c-24.45,2.61-49,4.53-73.68,5.26-6.88.2-13.77.32-20.65.32-3.5,0-7,0-10.53-.07q-6.28-.11-12.75-.29a491.49,491.49,0,0,1-56.74-4.55c-1.53-.2-3-.42-4.52-.67-.39-1-.75-2-1-3.05s-.75-2.37-1.07-3.55c-.6-2.16-1.11-4.35-1.5-6.56-.21-1.16-.42-2.31-.57-3.5a74.08,74.08,0,0,1-.75-10.68c-.81-.31-1.58-.62-2.36-1-9.1-3.88-16.28-9.63-20.92-16.39a32,32,0,0,1-5.89-18.19v-26.5c0-15,11.28-28.72,29.17-35.56V202.6a116.65,116.65,0,0,1,1.41-18.08,121.89,121.89,0,0,1,10.47-33.87c11.55-7.32,23.35-14.41,35.55-21.05h0q13.52-7.44,27.84-14c2.72-1.24,17.59-9.38,22.74-8.22,5.51,1.24,3.17,2.58,4.64,6.22,1.79,4.5,0,6.62,7.15,7.42s16.22-4.86,22.8-6.29c12.12-2.65,13.65,2.75,23.61,4.2,4,.55,8.56-1.56,12.42-.34,6.32,2,5.45,6,8.14,10.08,3.38,5.15,9,6.8,14.67,8.76a36.87,36.87,0,0,1,10.32,5c9.34,7.09,6.14,11.59,18.49,3.17,8.65-5.91,30-20.72,43.52-16.84,7.24,2.1,8.88,7.6,13.85,11.1,2.37,1.66,5.54,2.88,10.45,3,11.4.33,18.43-5,27,2.31,8.86,7.63,10.74,12.18,25.2,5.8,0,0,0,0,0,0,13-5.73,18.61-7.89,29.05-.09.66.49,1.35,1,2,1.61,6.52,5.35,13.38,10.28,23,12.46,6.17,1.38,12.72.67,19,.94a117.8,117.8,0,0,1,5.78,33.51c.06,1.07.06,2.12.06,3.19v19.56a14,14,0,0,1,1.65.69,52.32,52.32,0,0,1,7.75,3.86c.86.51,1.7,1.07,2.51,1.62l.51.36c.9.63,1.73,1.27,2.57,1.94a42.78,42.78,0,0,1,7.63,7.92c.54.71,1,1.47,1.5,2.21a1.25,1.25,0,0,1,.12.17c.39.65.78,1.3,1.11,1.94l.27.52c.36.64.65,1.31.95,2s.6,1.43.84,2.16.39,1.14.54,1.72a7.91,7.91,0,0,1,.33,1.12c.18.69.33,1.36.45,2a8.66,8.66,0,0,1,.12.87,10.45,10.45,0,0,1,.21,1.67,1.23,1.23,0,0,1,0,.33A21.85,21.85,0,0,1,481.33,257.72Z"/><path class="cls-4" d="M481.33,257.72v26.5a30.25,30.25,0,0,1-1.59,9.67,34.28,34.28,0,0,1-4.16,8.32q-9.78.51-19.48.63c-5.63.06-11.22,0-16.82-.09A420.07,420.07,0,0,1,396,299.58q-12-1.54-24-3.84c-2.45-.46-4.85-.95-7.27-1.45,0,0,0,0-.06,0h0c-26.07-5.33-51.21-11.66-78.77-10.12-26.15,1.45-51.59,7.18-78,5.77a164.59,164.59,0,0,1-44.8-8.45c-1.74-.58-3.47-1.18-5.15-1.85-3.74-1.4-7.42-3-11-4.66q-6.24-2.94-12.18-6.38c-1.68-.95-3.32-2-5-3-1.17-.72-2.3-1.45-3.44-2.21a2.25,2.25,0,0,1-.6-.38c-1-.6-1.91-1.25-2.87-1.92l-.09-.07a4.59,4.59,0,0,1-.57-.37c-3.56-2.46-7.09-5-10.53-7.74-.63-.49-1.23-.94-1.83-1.38-6.22-4.69-10.65-7.16-9.4-14.7.93-5.31,5.09-11,10.57-17,1-1.07,2-2.14,3-3.21.24-.24.48-.47.75-.71v-.05c1.79-1.8,3.68-3.63,5.59-5.48,4.1-4,8.29-8.05,12.12-12.13,1.08-1.16,2.13-2.34,3.15-3.5h0a70.67,70.67,0,0,0,6.1-8c4-2.36,8-5,12-7.78,7.57-5.26,15.17-11.06,22.89-16.66,14.88-10.74,30.35-20.8,47.56-24.93,1-.24,2.06-.46,3.11-.66,14.15-2.79,17.77-9.28,28.91-16.39,10-6.4,13.28-2,25-4.35,12.39-2.5,19.34-12.42,31.82-14.68,4.51-.82,10.08.63,14.81.09,5.74-.64,10.8-3.52,16.4-4,29-2.66,5,17.17,27.05,19.67,5.09.58,14.63-2.61,19.12-.7,5,2.12,2.91,4.91,6.17,7.5,7,5.5,17.47,4.41,24.21,9.41,4.19,3.1,3.59,8,8.62,11.08,2.48,1.52,5.74,2.12,8.94,2.72a119.39,119.39,0,0,1,7.46,17.75,22.74,22.74,0,0,1,3.53,1.27c-1-.11-2.13-.18-3.18-.22a117.8,117.8,0,0,1,5.78,33.51c.06,1.07.06,2.12.06,3.19v19.56a14,14,0,0,1,1.65.69,52.32,52.32,0,0,1,7.75,3.86c.86.51,1.7,1.07,2.51,1.62l.51.36c.9.63,1.73,1.27,2.57,1.94a42.78,42.78,0,0,1,7.63,7.92c.54.71,1,1.47,1.5,2.21a1.25,1.25,0,0,1,.12.17c.39.65.78,1.3,1.11,1.94l.27.52c.36.64.65,1.31.95,2s.6,1.43.84,2.16.39,1.14.54,1.72a7.91,7.91,0,0,1,.33,1.12c.18.69.33,1.36.45,2a8.66,8.66,0,0,1,.12.87,10.45,10.45,0,0,1,.21,1.67,1.23,1.23,0,0,1,0,.33A21.85,21.85,0,0,1,481.33,257.72Z"/><path class="cls-4" d="M396,299.58a45.81,45.81,0,0,1-8.59,5.64c-.54.29-1.08.56-1.65.8a125.38,125.38,0,0,1-24.86,8.77c-16.64,4.28-35.52,6.73-53.69,8.6-10.11,1.05-20,1.92-29.18,2.79-12.93,1.25-25.82,2.25-38.75,2.95h-.12a735.19,735.19,0,0,1-116.59-2.41c-6.64-.69-13.26-1.45-19.81-2.23h0c-4.58-.52-9.13-1.05-13.68-1.59-.33,0-.69-.06-1-.11-16.85-1.89-33.64-3.54-50.79-3.9-2.24-.07-4.52-.09-6.79-.09-9.1-3.88-16.28-9.63-20.92-16.39a32,32,0,0,1-5.89-18.19v-26.5c0-15,11.28-28.72,29.17-35.56V202.6a116.65,116.65,0,0,1,1.41-18.08,121.89,121.89,0,0,1,10.47-33.87,135.85,135.85,0,0,1,9.13-16.26c6-1.32,11.52-3.55,17.66-4.24a81.3,81.3,0,0,1,8.76-.55h0c24.54,0,1.71,17.54,28.58,18.77,6.83.29,19.34-3.39,25.41-1.72,6.79,1.85,4.22,4.75,8.77,7.16,9.69,5.13,23.58,3.5,32.89,8.12a5.42,5.42,0,0,1,.8.44,14.2,14.2,0,0,1,4.49,4.35c1.62,2.12,3.21,4.31,7,5.82,5.47,2.21,13.43,1.94,19.57,3.21h0l.3.07c21.42,4.62,17.53,10.7,29,19.89a23.2,23.2,0,0,0,6.32,3.5,22,22,0,0,0,2.6.87,64.15,64.15,0,0,0,11.25,2c1.23.11,2.46.24,3.72.33.83.09,1.67.16,2.54.23,1.35.11,2.69.22,4.07.35,1.17.09,2.33.2,3.5.34l2.27.27.57.08c2.07.29,4.1.65,6.05,1.12a35.46,35.46,0,0,1,6.25,2.05l.48.22c.33.16.63.29.93.45,7.06,3.59,6.31,7.67,10.11,12.33,4.79,5.93,9,8.54,16.58,10.88l.78.23,1.17.35h0c1.31.38,2.72.74,4.25,1.14,1.85.47,3.89,1,6.13,1.49l.27.07,2.19.54,1.64.44.75.2,3.29,1c.33.09.66.2,1,.31.63.18,1.26.38,1.88.58,1.08.36,2.22.72,3.33,1.1l2.87,1,.69.27h.06c.75.27,1.46.56,2.21.85s1.56.58,2.34.89c2.39,1,4.81,2,7.21,3a6.81,6.81,0,0,1,.75.34c2.12.93,4.22,1.91,6.28,2.94,2.87,1.4,5.72,2.9,8.44,4.44.63.35,1.26.71,1.85,1.07,1.77,1.05,3.51,2.09,5.18,3.19,2.1,1.33,4.1,2.72,6,4.1a6.64,6.64,0,0,0,.66.49l1.91,1.49.06.05C402.65,274.31,409.63,288,396,299.58Z"/><path class="cls-4" d="M481.33,257.72v26.5a30.25,30.25,0,0,1-1.59,9.67,34.28,34.28,0,0,1-4.16,8.32c-.66,1-1.37,1.92-2.12,2.85-5.06,6.18-12.36,11.31-21.34,14.72a77,77,0,0,1-1.44,14.92c-5.68-.13-11.34-.33-17-.6-2-.09-4-.2-6-.31-6.52-.38-13-.85-19.54-1.43-3.74-.31-7.45-.67-11.19-1.05-12.51-1.31-24.84-2.85-37.14-4.21h0c-17.39-2-34.74-3.57-52.52-3.71-8.47-.06-17,.18-25.77.9-14.21,1.16-28.19,3-42.16,4.84h-.12c-20.17,2.6-40.34,5.08-61.17,5.06-28.07,0-52.73-3.48-75.23-9.7h0c-3.14-.87-6.26-1.79-9.31-2.77h0c-1.08-.33-2.18-.69-3.26-1.05a279.46,279.46,0,0,1-42.76-18.35c-1.71-.89-3.36-1.69-4.88-2.45-3.71-1.85-6.82-3.39-8.83-5.35a8,8,0,0,1-2.36-7.65c2.24-14.81,37.7-34,51.44-52.16C90.44,230.9,98,226.55,105.49,222l.48-.29,5.27-3.21,2.9-1.81c.21-.13.39-.24.6-.35v0l5.51-3.39c5.5-3.41,11.07-6.8,16.75-10.08,1.74-1,3.5-2,5.27-3,.75-.4,1.5-.83,2.25-1.23,2.36-1.27,4.72-2.54,7.15-3.75,2.63-1.33,5.32-2.6,8-3.83,1.25-.58,2.51-1.12,3.8-1.65a142.18,142.18,0,0,1,29.56-9.14,61.54,61.54,0,0,0,14.73-4.49h0c7.9-3.61,13-8.29,22.56-13.42,8.32-4.5,13.26-4.26,19.9-4.37a70.8,70.8,0,0,0,13-1.27c16.31-3.17,24.87-13.45,41.33-16.37a33.76,33.76,0,0,1,5.89-.45c4.58-.06,9.52.32,13.8-.22,7.6-1,14.12-4.1,21.54-4.9,32.26-3.53,15.83,10.81,27.33,16.23,2.18,1.05,5.38,1.76,10.08,2,4.88.23,12.72-1.6,19-2.05a19.87,19.87,0,0,1,6.41.34c6.79,1.87,4.22,4.74,8.8,7.15,8.26,4.4,19.57,3.84,28.49,6.47a22.74,22.74,0,0,1,3.53,1.27c-1-.11-2.13-.18-3.18-.22a117.8,117.8,0,0,1,5.78,33.51c.06,1.07.06,2.12.06,3.19v19.56a14,14,0,0,1,1.65.69,52.32,52.32,0,0,1,7.75,3.86c.86.51,1.7,1.07,2.51,1.62l.51.36c.9.63,1.73,1.27,2.57,1.94a42.78,42.78,0,0,1,7.63,7.92c.54.71,1,1.47,1.5,2.21a1.25,1.25,0,0,1,.12.17c.39.65.78,1.3,1.11,1.94l.27.52c.36.64.65,1.31.95,2s.6,1.43.84,2.16.39,1.14.54,1.72a7.91,7.91,0,0,1,.33,1.12c.18.69.33,1.36.45,2a8.66,8.66,0,0,1,.12.87,10.45,10.45,0,0,1,.21,1.67,1.23,1.23,0,0,1,0,.33A21.85,21.85,0,0,1,481.33,257.72Z"/><path class="cls-4" d="M481.33,259.51v24.71a30.25,30.25,0,0,1-1.59,9.67,34.28,34.28,0,0,1-4.16,8.32c-.66,1-1.37,1.92-2.12,2.85-5.06,6.18-12.36,11.31-21.34,14.72a77,77,0,0,1-1.44,14.92,74.55,74.55,0,0,1-2.45,9.34,68.31,68.31,0,0,1-2.42,6.58c-.39.92-.78,1.81-1.2,2.7-1.38.11-2.75.25-4.1.38l-1.89.18c-12,1.11-23.91,2-35.85,2.67q-9.06.54-18.13.83A719.85,719.85,0,0,1,285,354.23c-23.08-2.4-45.49-5.62-68.35-7.11a322.23,322.23,0,0,0-47.11.09c-13,1.07-25.91,2.74-38.75,4.39-2.81.38-5.66.74-8.47,1.1-6.1.75-12.18,1.49-18.31,2.14a356.7,356.7,0,0,1-37.89,2.27c-6.94,0-13.68-.2-20.2-.65-1.41-.09-2.81-.17-4.19-.29a84.29,84.29,0,0,1-4-9.05c-.39-1-.75-2-1-3.05s-.75-2.37-1.07-3.55c-.6-2.16-1.11-4.35-1.5-6.56-.21-1.16-.42-2.31-.57-3.5a74.08,74.08,0,0,1-.75-10.68c-.81-.31-1.58-.62-2.36-1-9.1-3.88-16.28-9.63-20.92-16.39a32,32,0,0,1-5.89-18.19v-26.5c0-15,11.28-28.72,29.17-35.56v-.76s0,0,.06,0c1.77-.94,3.56-1.88,5.36-2.79a5.05,5.05,0,0,1,.45-.25c.72-.38,1.46-.76,2.21-1.11,3.59-1.79,7.24-3.48,11-5,2.87-1.23,5.77-2.37,8.73-3.41.39-.16.78-.29,1.17-.43,1.56-.53,3.11-1.05,4.7-1.54l1.91-.58c4.13-1.2,8.35-2.25,12.66-3.05l.06,0c2.37-.45,4.49-.94,6.44-1.47s3.86-1.19,5.53-1.83a47.48,47.48,0,0,0,5.21-2.39c1.71-.85,3.32-1.81,4.91-2.79,1.31-.82,2.63-1.67,4-2.56,2.87-1.87,6-3.9,9.69-6,.51-.29,1-.58,1.56-.87l.54-.29c12.45-6.49,17.24-2.41,32.41-5.35.84-.16,1.67-.36,2.48-.56,10.72-2.65,18.14-8.34,27.38-12.31a51.62,51.62,0,0,1,11.44-3.48c5.92-1,13.46.12,19.69-.69,7.6-1,14.12-4.08,21.57-4.88,8.11-.89,13.14-.65,16.31.29,11.79,3.52-2.21,16.84,21.07,17.91,6.82.31,19.3-3.39,25.41-1.72,6.79,1.85,4.22,4.75,8.76,7.16,9.67,5.13,23.59,3.5,32.89,8.11a12.12,12.12,0,0,1,3.8,2.92c1.95,2.17,3.09,4.64,6.17,6.56a16.53,16.53,0,0,0,2.27,1.14,1.17,1.17,0,0,0,.3.11C356,202.09,363,202,368.81,203c.6.09,1.16.2,1.7.32,2.16.46,4.07,1,5.75,1.44.57.16,1.11.34,1.61.5,13.29,4.37,11.71,10,21.64,18a28.52,28.52,0,0,0,12.12,5.17c5.6,1.18,11.82,1.54,18,2.07a.75.75,0,0,1,.24,0c2.39.2,4.78.46,7.15.8l1.19.18a42.77,42.77,0,0,1,11,3.12c.36.15.69.33,1,.49a4.23,4.23,0,0,0,.42.22c4.61,2.52,5.66,5.26,7.19,8.27a22,22,0,0,0,2.39,3.8C465.86,254.38,470.82,256.77,481.33,259.51Z"/><path class="cls-6" d="M481.33,257.72v26.5a30.25,30.25,0,0,1-1.59,9.67,34.28,34.28,0,0,1-4.16,8.32c-.66,1-1.37,1.92-2.12,2.85-5.06,6.18-12.36,11.31-21.34,14.72a77,77,0,0,1-1.44,14.92,74.55,74.55,0,0,1-2.45,9.34,68.31,68.31,0,0,1-2.42,6.58c-1.92.92-3.92,1.81-6,2.68l-1.23.58c-4.55,2.12-9.45,4.23-14.57,6.26a60.53,60.53,0,0,1-13.71,9.19c-3.56,1.76-7.39,3.52-11.46,5.29-2.39,1-4.88,2.05-7.42,3a212.15,212.15,0,0,1-33.07,10.21c-18.4,5.53-38.12,8.67-55.09,5.66a45.48,45.48,0,0,1-15.05-5.21,80.56,80.56,0,0,1-11.55-1.14A43.68,43.68,0,0,1,260.18,381a25.07,25.07,0,0,1-2.34-1.65c-1.07.25-2.15.49-3.26.72-2.36.71-4.76,1.38-7.15,2-16.22,4.22-33,6.27-47.79,3.64a43.88,43.88,0,0,1-16.31-6c-.48-.31-1-.63-1.41-1a31.94,31.94,0,0,1-11.94-17,73.6,73.6,0,0,1-7.36-.89c-8.62-1.54-15-4.53-19.63-8.5a15,15,0,0,1-1.26-1.09,100.2,100.2,0,0,1-10.92.31,74.44,74.44,0,0,1-11.49-1.11,47.63,47.63,0,0,1-12.66-3.95A78.29,78.29,0,0,1,92,345.38a48.06,48.06,0,0,1-9.7-2.65h0a32,32,0,0,1-15.86-12.51c-.57-.85-1.08-1.74-1.56-2.63a170.23,170.23,0,0,1-25.07,5.68q-2.79.44-5.57.69c-.21-1.16-.42-2.31-.57-3.5a74.08,74.08,0,0,1-.75-10.68c-.81-.31-1.58-.62-2.36-1-9.1-3.88-16.28-9.63-20.92-16.39a32,32,0,0,1-5.89-18.19v-26.5c0-15,11.28-28.72,29.17-35.56V206l.33-.25A17.07,17.07,0,0,0,38.43,218a2.78,2.78,0,0,0,.3.29A13.57,13.57,0,0,0,40,219.39a8.74,8.74,0,0,0,.9-2.18c1.11-4,.09-8.45,3.8-11.8,1.41,2.39,1.65,5.38,3,7.78.89-1.25,3-2.56,4.1-3.65a.8.8,0,0,0,.23-.2c1.17-5.42,3.09-10,7.16-11.33a17.94,17.94,0,0,1,.92,5.64,15.77,15.77,0,0,0,1.14,3.57v0c.15.38.36.74.54,1.09a15.92,15.92,0,0,0,1.14,1.9,11.25,11.25,0,0,1,1.55-2.1,23.73,23.73,0,0,1,.84,4.82c.42.36.84.71,1.29,1.05.27-1,.51-2.06.72-3.08.33-1.41.63-2.81,1-4.22a3,3,0,0,1,.09-.49,11.46,11.46,0,0,1,1.2-3.9,25,25,0,0,1,2-4.46,11.34,11.34,0,0,1,.54,2.77c1.13-5.85,3.05-10.88,7.36-12.33,1.37,3.41.74,9.83,1.58,14.87a13.7,13.7,0,0,0,1.17,4,6.34,6.34,0,0,1,1.32-.51,29.21,29.21,0,0,1,1.13,3,1.41,1.41,0,0,0,.27.18,41.32,41.32,0,0,0,2.61-8.2c1-4.58,1.82-9.17,4.31-13.52,1.22,3.24.12,8,1.22,11.69a6.11,6.11,0,0,0,2.28,3.34,8.33,8.33,0,0,0,2.3-1.36c.18-1.45.39-2.92.63-4.37a53.43,53.43,0,0,1,1.44-6.4c1.22-4,3.11-7.05,6.34-8.12.9,2.21,1,5.65,1.11,9.17.06,1.38.12,2.76.27,4.08.36,3.77,1.31,7.09,4.1,8.32a39.45,39.45,0,0,0,2.45-7.56,76.09,76.09,0,0,1,2.87-10.84,26.45,26.45,0,0,1,1.59-3.32,9.61,9.61,0,0,1,.51,2.16c.48,3.75-.51,8.52,1.7,11.55a5,5,0,0,0,1.29,1.32,8.41,8.41,0,0,0,3-2c1.71-1.63,2.88-3.57,5.48-4.26a27.91,27.91,0,0,1,1.26,3.41c.36,1.09.63,2.18.89,3.3s.45,2.07.63,3.12a7.84,7.84,0,0,1,3-1.94,14.63,14.63,0,0,1,.74,3.34c.36,3.13.27,7.05.69,10.49a9,9,0,0,1,2.93-2.77c.69-3.17,1.11-7,1.65-10.7.15-1.05.3-2.08.51-3.1,1.11-6.47,3-12.24,7.66-13.81,1.11,2.79.9,7.54,1.23,11.93s1.13,8.28,4.25,9.64c2-4.37,2.63-9,3.77-13.47a31.17,31.17,0,0,1,3.11-8.25c.72,1.85.66,4.23.69,6.6,0,3.25.21,6.51,2.84,8.43,3.89-1.47,4.64-5.2,8.47-6.22,2.45,5.64,3.14,11.86,4,18l.09.74c.12-.2.24-.38.36-.56a9.09,9.09,0,0,1,1.29-1.65c.15.49.2,1,.32,1.52,1.11-6.83,2.91-13.07,7.82-14.7a12.34,12.34,0,0,1,.44,1.63c1.23-4,3.12-7.2,6.41-8.29,1.55,3.85.54,11.5,1.94,16.7A35.79,35.79,0,0,1,201,194.8c1.26,3.23.15,8,1.26,11.66,1.95-6.09,2.25-12.42,5.63-18.31,1.67,4.39-1,11.73,3.5,15a6.33,6.33,0,0,0,.9-.47,8.32,8.32,0,0,1,2.87-2.32c1.35-1.42,2.51-2.85,4.7-3.45,2.36,5.51,3.11,11.53,3.92,17.52.72-2.94,1.28-5.93,2.18-8.87,1.2-5.11,3.11-9.34,7-10.64,1.68,4.11.42,12.49,2.25,17.66,1.53-1.56,2.72-3.27,5.15-3.92.12.31.24.62.36,1a97.41,97.41,0,0,1,2.66-10.44,25.26,25.26,0,0,1,2-4.41,15.42,15.42,0,0,1,.63,5.28c.06,3.68-.09,7.58,2.88,9.75,3.2-1.21,4.3-3.93,6.73-5.44a11.6,11.6,0,0,1,1.64-2.3,7.18,7.18,0,0,1,3.09-2.05,12.09,12.09,0,0,1,.63,2.38c.17,1.21.29,2.55.35,4a14,14,0,0,1,2.19-3.74,7.77,7.77,0,0,1,3.41-2.35,12.71,12.71,0,0,1,.66,2.7c.45,3.12.33,7.18.75,10.77a75.24,75.24,0,0,1,2.75-10.43,28.41,28.41,0,0,1,1.65-3.44,12,12,0,0,1,.62,3.71c0,.31,0,.62,0,.93a9.38,9.38,0,0,1,.54-.85,8.12,8.12,0,0,1,4.16-3.39,8.84,8.84,0,0,1,.45,1.45,16.53,16.53,0,0,1,.78-1.58,14,14,0,0,1,.66,4.64,42.68,42.68,0,0,0,.27,5.57,8.4,8.4,0,0,0,.27,1.25,8.57,8.57,0,0,1,4.19-2.94c.3.69.59,1.4.83,2.12.15-.94.3-1.9.48-2.81.06-.38.15-.76.21-1.14,1.17-5.69,3.08-10.5,7.3-11.91,1.11,2.72.93,7.34,1.23,11.67a27.16,27.16,0,0,0,.69,4.9c.24-.56.51-1.09.81-1.65a10.09,10.09,0,0,1,.54,2.77,31.15,31.15,0,0,1,1.73-6.09c1.08-2.74,2.64-4.86,4.94-5.91a27.26,27.26,0,0,1,2.45-5.84c1.2,3.12.21,7.69,1.11,11.26a6.46,6.46,0,0,0,2.39,3.77c2.16-.83,3.36-2.32,4.64-3.68l.45-1.41a28,28,0,0,1,2-4.57,11.89,11.89,0,0,1,.63,3.7,4.55,4.55,0,0,1,.71-.26s0,.11.06.15a44.46,44.46,0,0,1,2.73,9.68A8.14,8.14,0,0,1,322.6,212a45.82,45.82,0,0,1,2.64-11.19c1.19-2.85,3-5,5.53-5.89a11.16,11.16,0,0,1,.69,2.75c.18,1.38.27,3,.33,4.63,1.23-3.59,3-6.37,6.1-7.38,1.14,2.81.9,7.63,1.23,12,.9-4.12,1.77-8.27,4-12.19,1.56,4.06-.54,10.54,2.63,14.13a84.86,84.86,0,0,1,2.58-10,26.85,26.85,0,0,1,1.88-4.1,15.82,15.82,0,0,1,.69,5.35,25.12,25.12,0,0,0,.48,5.89,7.72,7.72,0,0,1,3.71-2.43,36.3,36.3,0,0,1,1.53,4.32c1.76-1.65,2.93-3.61,5.56-4.32,2.16,4.92,3,10.27,3.71,15.65.84-5.26,1.35-11.42,2.88-16.26,1.22-3.92,3.08-7,6.31-8.05,1,2.34,1,6.07,1.14,9.81,0,1.36.12,2.73.27,4a20.59,20.59,0,0,1,1.34-3.52,9.2,9.2,0,0,1,5.12-5,17,17,0,0,1,.87,4.93,36.35,36.35,0,0,1,3.65-10.43c1.68,4.41-1,11.73,3.5,15a10.67,10.67,0,0,0,1-.49,32.66,32.66,0,0,1,3.32-9.17,15.66,15.66,0,0,1,.66,5.58,7.6,7.6,0,0,1,3.47-2.14,42.64,42.64,0,0,1,2.69,9.29c1.53-1.56,2.73-3.27,5.15-3.94a15.46,15.46,0,0,1,.6,1.49,1,1,0,0,0,.09-.18,11.31,11.31,0,0,1,.39,1.47A70.75,70.75,0,0,1,411,224.59c1.5-9.48,2-21.88,9.19-24.29,2,4.93-.21,16,3.74,20.32a5.19,5.19,0,0,0,1.74,1.27c.29-.67.56-1.34.83-2,2.22-6,2.4-12.42,5.36-18.35a14.6,14.6,0,0,1,.72-1.34,5.4,5.4,0,0,1,.36,1.38c.87,4.42-.9,10.66,3.14,13.63,3.89-1.47,4.64-5.18,8.47-6.22,2.33,5.39,3.08,11.3,3.89,17.19.12.91.27,1.83.39,2.74.12-.56.24-1.09.36-1.65v0a44.93,44.93,0,0,1,2.9-9.63c.3-.65.63-1.3,1-1.94.78,2,.63,4.63.66,7.2a19.3,19.3,0,0,0,.38,3.72,6.55,6.55,0,0,0,2.46,4.11,8.41,8.41,0,0,0,2.66-1.68c.81-.73,1.5-1.54,2.25-2.29a7.71,7.71,0,0,1,2.9-2,3.46,3.46,0,0,1,.66-.25,37.77,37.77,0,0,1,2,6.2,124.08,124.08,0,0,1,2.13,13c.09.53.15,1,.24,1.58a6.31,6.31,0,0,0,.66-.44c1.85-1.41,3.26-3.91,4.6-6.2.54.71,1,1.47,1.5,2.21a1.25,1.25,0,0,1,.12.17c.39.65.78,1.3,1.11,1.94l.27.52c.36.64.65,1.31.95,2s.6,1.43.84,2.16.39,1.14.54,1.72a7.91,7.91,0,0,1,.33,1.12c.18.69.33,1.36.45,2a8.66,8.66,0,0,1,.12.87,10.45,10.45,0,0,1,.21,1.67,1.23,1.23,0,0,1,0,.33A21.85,21.85,0,0,1,481.33,257.72Z"/><path class="cls-7" d="M439.79,298.8l-.51,3.95-.72,5.77-2.09,16.66a26,26,0,0,1-2.81,8.92,5.34,5.34,0,0,1-.3.58c-.24.42-.48.85-.75,1.25a32.85,32.85,0,0,1-5.27,6.69c-.93.93-1.88,1.8-2.9,2.67a62.23,62.23,0,0,1-21.67,11.26c-1.88.61-3.8,1.14-5.8,1.61q-.27,2.26-.72,4.5a69.11,69.11,0,0,1-2.84,10.24c-.15.38-.27.76-.45,1.14-.45,1.22-1,2.43-1.5,3.61a76.71,76.71,0,0,1-5.89,10.7c-2.43.74-4.94,1.45-7.49,2.16-.53.16-1,.32-1.55.47-5.72,1.74-11.88,3.44-18.29,5a79.62,79.62,0,0,1-17.59,8c-4.49,1.47-9.31,2.89-14.43,4.3A320.72,320.72,0,0,1,276,418.12c-1.92.33-3.83.65-5.75.94-21,3.23-42.79,4.14-61.11.11a59.35,59.35,0,0,1-17.41-6.45A115.23,115.23,0,0,1,178,410.63c-8.05-1.81-14.27-4.37-19.06-7.54a28.58,28.58,0,0,1-2.57-1.83c-1.35.16-2.67.31-4,.43-2.94.51-5.9,1-8.83,1.38-18,2.56-36.36,3.32-52.52.65a136.26,136.26,0,0,1-17.63-11.13,112.17,112.17,0,0,1-24.66-24.93c-.18-.25-.33-.47-.48-.72a87.2,87.2,0,0,1-6.46-10.77,84.29,84.29,0,0,1-4-9.05c-.39-1-.75-2-1-3.05s-.75-2.37-1.07-3.55c-.6-2.16-1.11-4.35-1.5-6.56-.21-1.16-.42-2.31-.57-3.5a74.08,74.08,0,0,1-.75-10.68c-.81-.31-1.58-.62-2.36-1-9.1-3.88-16.28-9.63-20.92-16.39a32,32,0,0,1-5.89-18.19v-26.5c0-15,11.28-28.72,29.17-35.56-.06,1.25-.12,2.54-.09,3.74a10.78,10.78,0,0,1,3.86-2.49c.6-1.5,1.11-3.13,1.65-4.84a3.63,3.63,0,0,1,.15-.54c.51-1.67,1-3.43,1.53-5.15,2.27-7.49,5.14-14.8,11.91-16.14,1,2.87.12,7.58,0,12a7.68,7.68,0,0,0,0,.83,25.1,25.1,0,0,0,.09,2.63c.26,2.9,1.25,5.33,3.86,6.49a47.09,47.09,0,0,0,4.87-9.9c.21-.52.42-1,.63-1.52v0c.21-.56.45-1.1.69-1.65a30.11,30.11,0,0,1,4.76-8c.63,1.91.27,4.28,0,6.64a25.31,25.31,0,0,0-.21,2.54,8.58,8.58,0,0,0,.84,4.13,6.08,6.08,0,0,0,1.73,2c4.85-1.16,6.23-4.79,11-5.51,2.33,6.07,2.3,12.58,2.57,19a12.32,12.32,0,0,1,2.27-2c.09.49.12,1,.18,1.54,2.19-6.71,5.12-12.78,11.22-14a8.6,8.6,0,0,1,.33,1.65c2-3.9,4.64-6.91,8.74-7.71,1.32,3.81-.63,10.88.15,16.14a4.43,4.43,0,0,0,.09.65c.12-.32.27-.63.39-.94a32,32,0,0,1,5.15-8.92,13.91,13.91,0,0,1,.12,5.71c-.06.47-.12.94-.15,1.4a13.84,13.84,0,0,0,.09,4.6c1.4-2.68,2.39-5.44,3.56-8.16v0a1.61,1.61,0,0,1,.15-.33v-.05a32.9,32.9,0,0,1,5.33-9.18,9.53,9.53,0,0,1,.26,3.7c0,.8-.14,1.63-.23,2.47-.39,3.39-.69,6.87,2.3,9.08a10.13,10.13,0,0,0,1.14-.38,10.48,10.48,0,0,1,3.74-2.07c1.79-1.32,3.38-2.63,6.07-3.06,2.16,5.69,2.31,11.75,2.52,17.77,1.22-2.85,2.27-5.79,3.74-8.65,2.06-5,4.87-9,9.72-10,1.5,4.22-1,12.47.48,17.77,2-1.42,3.68-3.05,6.67-3.47.12.31.21.62.33,1,2-4.89,3.54-9.88,7.43-14.41,1.43,4.53-2.67,11.6,2.3,15.25,4-.93,5.69-3.54,8.77-4.86a10.79,10.79,0,0,1,6.22-3.92,16.55,16.55,0,0,1,.39,6.4c1.8-2.83,4.16-4.93,7.48-5.6,1.11,3.23,0,8.74,0,13.54,1.89-4.57,3.41-9.21,7-13.45a12.87,12.87,0,0,1,.2,4.68,10.57,10.57,0,0,1,6.17-3.83,9,9,0,0,1,.36,1.49,14.24,14.24,0,0,1,1.14-1.51c.92,2.87-.39,6.82-.18,10.23a8.83,8.83,0,0,0,.18,1.27,11.45,11.45,0,0,1,5.38-2.59c.27.72.54,1.45.75,2.19.3-.91.6-1.85.93-2.76a29.58,29.58,0,0,1,4-8v0a11,11,0,0,1,6.64-4.33,17.09,17.09,0,0,1,.36,6.49c-.12,1.7-.27,3.48-.36,5.22,0,.62,0,1.22,0,1.83a17.4,17.4,0,0,0,.24,3.12,16.89,16.89,0,0,1,1.2-1.58,8.52,8.52,0,0,1,.3,2.81,27.74,27.74,0,0,1,2.81-5.87s0,0,0-.07a13.62,13.62,0,0,1,1.8-2.36,10.56,10.56,0,0,1,4.87-3.1,27.61,27.61,0,0,1,3.65-5.62c.78,2.39,0,5.46-.14,8.36a12,12,0,0,0,.09,2.95,5.83,5.83,0,0,0,2.39,4c2.69-.65,4.31-2,6-3.28.24-.47.45-.92.69-1.36a30.21,30.21,0,0,1,3-4.4,10.2,10.2,0,0,1,.3,3.75,7.89,7.89,0,0,1,.9-.22c0,.06,0,.13.06.18.12.35.27.71.36,1.09a40.8,40.8,0,0,1,1.71,8.76,11.09,11.09,0,0,1,2.45-1.25c.6-1.94,1.2-3.85,1.92-5.68a28.51,28.51,0,0,1,2.63-5.24,11.59,11.59,0,0,1,7.39-5.4,8.69,8.69,0,0,1,.48,2.79,36.19,36.19,0,0,1-.18,4.66c1.92-3.48,4.46-6.11,8.26-6.85,1,2.9.12,7.67,0,12.09,1.59-4,3.14-8.1,6.37-11.8,1.17,3.57-1.1,8.7.33,12.51a6.07,6.07,0,0,0,1.08,1.79c.48-1.19.93-2.37,1.41-3.55a43.5,43.5,0,0,1,2.93-6.24,28.84,28.84,0,0,1,2.75-3.93,13.42,13.42,0,0,1,.18,5.4,20.58,20.58,0,0,0-.18,5.89,10.37,10.37,0,0,1,4.76-2.1c.27.71.51,1.45.75,2.19v0c.21.73.42,1.47.57,2.23,2-1.32,3.53-2.92,6.1-3.62a9.47,9.47,0,0,1,1.11-.24,40.12,40.12,0,0,1,2.33,12.6c.09,1.09.12,2.21.18,3.3.24-.78.48-1.56.72-2.39,1.38-4.57,2.66-9.56,4.73-13.55a17.89,17.89,0,0,1,2.84-4.2,10.64,10.64,0,0,1,5.75-3.3,14.33,14.33,0,0,1,.48,5c-.06,1.56-.21,3.21-.33,4.86-.12,1.34-.18,2.7-.18,4a19.38,19.38,0,0,1,2.06-3.38A11.57,11.57,0,0,1,327,234a10.23,10.23,0,0,1,1.92-.58,5.93,5.93,0,0,1,.27,1.12,17.21,17.21,0,0,1,.15,3.81h0c.44-1.14.92-2.25,1.46-3.37a27.62,27.62,0,0,1,4.19-6.67c.57,1.79.3,3.95,0,6.16a15.78,15.78,0,0,0-.18,1.67c-.24,2.83-.06,5.58,2.49,7.43.44-.11.86-.27,1.28-.4a38.19,38.19,0,0,1,2.43-5,20.54,20.54,0,0,1,2.27-3.28,6.59,6.59,0,0,1,.42-.54,7.08,7.08,0,0,1,.33,2.79v0a15.62,15.62,0,0,1-.15,2l-.09.76a8.6,8.6,0,0,1,.78-.49.13.13,0,0,1,.06,0,9.05,9.05,0,0,1,2.51-1.07,7.8,7.8,0,0,1,1.08-.25,22,22,0,0,1,1,3.08,36.51,36.51,0,0,1,1.13,6.4c1.89-1.34,3.44-2.81,6.08-3.37a2.28,2.28,0,0,1,.6-.13,2.57,2.57,0,0,1,.15.47c.15.35.27.71.39,1.07a1.25,1.25,0,0,1,.11-.18,8.31,8.31,0,0,1,.27,1.49,35.54,35.54,0,0,1,.93,4.68c.39,2.75.54,5.53.66,8.34.63-2,1.23-4.1,1.86-6.22v0c.62-2.12,1.28-4.24,2.06-6.22,2.07-5.42,4.94-9.92,10.12-11,.86,2.5.32,6.44.09,10.32a28.39,28.39,0,0,0,.08,6.14c.39,2.45,1.44,4.46,3.72,5.48.53-.76,1-1.51,1.46-2.29a54.85,54.85,0,0,0,3.05-6.76c1.47-3.66,2.88-7.31,5.45-10.73.33-.42.66-.84,1.05-1.27a4.54,4.54,0,0,1,.24,1.41c.48,4.17-2,9.7,1.25,13.09a4.64,4.64,0,0,0,.84.73c3.92-.91,5.57-3.45,8.53-4.77a8.63,8.63,0,0,1,2.4-.71,37,37,0,0,1,2.06,9.41c.39,3.57.42,7.2.6,10.81,1.49-3.74,2.81-7.47,5.33-11,.44-.63.92-1.23,1.43-1.85.66,2.07.18,4.66-.12,7.22-.27,3.06-.24,6.05,2.46,8,2.87-.69,4.51-2.23,6.37-3.55a10.35,10.35,0,0,1,4.55-2,29.23,29.23,0,0,1,1.67,6.34c.81,4.81.78,9.81,1,14.69,2.79-1.07,5.06-3.75,7.15-6.18C438.65,285.29,440.63,292,439.79,298.8Z"/><path class="cls-8" d="M481.33,257.72v26.5a30.25,30.25,0,0,1-1.59,9.67,34.28,34.28,0,0,1-4.16,8.32c-.66,1-1.37,1.92-2.12,2.85-5.06,6.18-12.36,11.31-21.34,14.72a77,77,0,0,1-1.44,14.92,74.55,74.55,0,0,1-2.45,9.34,68.31,68.31,0,0,1-2.42,6.58c-.39.92-.78,1.81-1.2,2.7a92.11,92.11,0,0,1-6.47,11.62,100.41,100.41,0,0,1-10.14,13c-14.57,15.83-34.92,28.49-58.8,36.23a174.61,174.61,0,0,1-47.26,8.41h-.06c-2.6.11-5.26.18-7.93.18H171.06c-29.84,0-57.49-7.05-80.08-19a136.26,136.26,0,0,1-17.63-11.13,112.17,112.17,0,0,1-24.66-24.93c-.18-.25-.33-.47-.48-.72a87.2,87.2,0,0,1-6.46-10.77,84.29,84.29,0,0,1-4-9.05c-.39-1-.75-2-1-3.05s-.75-2.37-1.07-3.55c-.6-2.16-1.11-4.35-1.5-6.56-.21-1.16-.42-2.31-.57-3.5a74.08,74.08,0,0,1-.75-10.68c-.81-.31-1.58-.62-2.36-1-9.1-3.88-16.28-9.63-20.92-16.39L7.64,291.33l.41-.36a21.15,21.15,0,0,0,10.54,14.16c.69.36,1.34.74,2.12,1.09a9.42,9.42,0,0,0,.81-2.74c.81-4.86-1.62-10.08,3-14.56,2.52,2.63,3.47,6.18,5.87,8.85a19.5,19.5,0,0,1,3.29-3.25,27.41,27.41,0,0,0,2.13-1.94c.56-6.6,2.36-12.29,7.93-14.47a20.14,20.14,0,0,1,2.48,6.57A18.57,18.57,0,0,0,49.59,290a25.85,25.85,0,0,0,2.07,2.12,10.72,10.72,0,0,1,1.79-2.72,26.33,26.33,0,0,1,2.19,5.6,22.31,22.31,0,0,0,2.06,1.07c.42-2.94.6-5.93,1-8.9a2,2,0,0,1,0-.6,11.29,11.29,0,0,1,.93-4.82,23.47,23.47,0,0,1,1.88-5.55,12.91,12.91,0,0,1,1.35,3.21,35.12,35.12,0,0,1,.6-5.13c.92-4.88,3-8.83,7.39-10.57,2.69,3.88,3.14,11.58,5.35,17.46a18.23,18.23,0,0,0,2.07,4c.15.22.3.4.45.6a.57.57,0,0,1,.24-.13,7.49,7.49,0,0,1,1.55-.67,30,30,0,0,1,2,3,1.42,1.42,0,0,1,.24.4,2.82,2.82,0,0,0,.45.18.81.81,0,0,1,0-.11,42.55,42.55,0,0,0,2-10c.51-5.6.72-11.15,3.38-16.66,2.43,3.66,1.86,9.54,4.19,13.71a8.33,8.33,0,0,0,4,3.66,12.26,12.26,0,0,0,3-1.94c0-1.74,0-3.52,0-5.26.18-8.23,1.49-15.79,8.14-18.35,1.73,2.47,2.54,6.55,3.47,10.72,1.37,6.25,3.11,12.71,8.89,14.14,2.09-5.75,1.91-11.6,2.72-17.44a45.27,45.27,0,0,1,1.08-5.17,23.56,23.56,0,0,1,1.58-4.19,11.2,11.2,0,0,1,1.17,2.52c1.14,3.54,1.14,8,3.08,11.35a8.66,8.66,0,0,0,3.89,3.52q.58-.27,1.08-.54c4.25-2.38,4.88-6.42,9.75-8a43.32,43.32,0,0,1,4.49,7.69c.57,1.16,1.08,2.39,1.56,3.59a11.19,11.19,0,0,1,3.95-2.72,8.4,8.4,0,0,1,.57,1,15.82,15.82,0,0,1,1.17,2.9s.06.09.06.11c.62,2,1.1,4.22,1.61,6.51.45,1.94.9,3.9,1.5,5.76a11,11,0,0,1,3.62-3.68.61.61,0,0,1,0-.23c.33-3.68.12-8,.12-12.22v-.53c0-1.21,0-2.43.06-3.64.27-7.89,1.7-15.09,8.17-17.59,1.64,2.45,2.42,6.42,3.35,10.5.27,1.16.57,2.34.87,3.5.12.4.21.81.33,1.18,1.31,4.6,3.38,8.59,7.75,9.68,1.73-4.72,1.91-9.52,2.36-14.27.06-.76.15-1.49.24-2.25a39.51,39.51,0,0,1,1-5.24,26,26,0,0,1,1.82-5,10.39,10.39,0,0,1,1.38,3.19,42.18,42.18,0,0,1,1,4.53,22.11,22.11,0,0,0,.51,2.39c.75,3,2,5.75,5.32,7.26,5.3-2.29,5.57-6.84,10.87-8.58,4.87,6.6,7.15,14.25,9.78,21.72a11.16,11.16,0,0,1,1.92-2.83c.27.55.48,1.16.75,1.74a41.68,41.68,0,0,1,1.1-9.57c1.05-4.15,3.09-7.45,7-9a16.14,16.14,0,0,1,1,1.85,17.71,17.71,0,0,1,2.55-6.77v0a10.1,10.1,0,0,1,4.9-3.94,18.41,18.41,0,0,1,2.37,6.15c1.14,4.39,1.91,9.61,3.89,13.47.39-4.24,1-8.43,3-12.64,2.49,3.68,1.92,9.52,4.25,13.71,1.32-6.31.9-12.64,2.84-18.93a26.19,26.19,0,0,1,1.44-3.64,12.58,12.58,0,0,1,1.62,4.22c1.1,4.84,1.1,10.66,6.52,13.18a13.54,13.54,0,0,0,1.2-.7,10.67,10.67,0,0,1,3.62-3.16c.63-.74,1.28-1.5,2-2.19a9.81,9.81,0,0,1,3-2.12,7,7,0,0,1,1.07-.44c4.52,6.22,6.86,13.29,9.28,20.29.42-3.59.6-7.22,1.29-10.86a24.19,24.19,0,0,1,1.79-7.51v0a13.3,13.3,0,0,1,1.23-2.27,10.25,10.25,0,0,1,4.79-3.79,15.47,15.47,0,0,1,2,4.44c.27.91.51,1.85.75,2.85.93,4,1.71,8.45,3.38,11.91v0c.27.52.51,1,.81,1.43l.27-.33a34.75,34.75,0,0,1,2.66-2.9,9.74,9.74,0,0,1,3.62-2.14,10.82,10.82,0,0,1,.72,1.09c.66-5.71.66-11.4,3-17.06a9.49,9.49,0,0,1,.54-1.27,7.7,7.7,0,0,1,.87,1.69h0c2.07,5.15.87,12.76,7.24,15.7,4.25-1.83,5.36-5.1,8.32-7.25,0,0,.06,0,.06,0l.18-.13a11.35,11.35,0,0,1,2.46-3.64,10.51,10.51,0,0,1,3.38-2.2,14.23,14.23,0,0,1,.81,1.33,25.32,25.32,0,0,1,.95,2.39c.36,1.16.72,2.41,1,3.72a14.32,14.32,0,0,1,1.26-3,10.2,10.2,0,0,1,5.47-5,11.54,11.54,0,0,1,1.23,2.38,21.36,21.36,0,0,1,.9,2.7v.05c.24.87.51,1.76.72,2.69v0c.59,2.6,1.16,5.41,2,8,.21-2.32.39-4.64.69-7,.09-.78.21-1.56.36-2.32a28.2,28.2,0,0,1,2.39-7.85,15.08,15.08,0,0,1,1.89,5.44,10.87,10.87,0,0,1,5.86-5.7,7.07,7.07,0,0,1,.72,1.24,2.14,2.14,0,0,1,.21.43c.27-.67.48-1.34.81-2a11.34,11.34,0,0,1,1.5,3.66v0c.71,2.68.95,5.69,1.94,8.32a10.57,10.57,0,0,0,.63,1.45,11.76,11.76,0,0,1,5.42-4.08c.59.8,1.16,1.6,1.67,2.41,0-1.14,0-2.32.06-3.41a39.89,39.89,0,0,1,.78-6.49,17,17,0,0,1,1.77-5.07,10.25,10.25,0,0,1,5.53-5c1.29,1.85,2.07,4.57,2.78,7.56.45,2,.87,4.08,1.41,6.13a29.08,29.08,0,0,0,1.53,4.73,6.2,6.2,0,0,0,.45,1,4.48,4.48,0,0,1,.21-.53,14.07,14.07,0,0,1,.62-1.56,11.25,11.25,0,0,1,1.29,3c0,.05,0,.11.06.16v-.11a30,30,0,0,1,1.23-7.38,16.13,16.13,0,0,1,1.19-3,10.59,10.59,0,0,1,4.67-4.69,27.42,27.42,0,0,1,2.28-7.31c1.46,2.16,1.85,5.08,2.42,8a19.25,19.25,0,0,0,1.53,5.29,8.37,8.37,0,0,0,2.93,3.41,6,6,0,0,0,1.29.73c2.9-1.25,4.34-3.21,5.86-5,.12-.6.27-1.18.36-1.74a27.82,27.82,0,0,1,2-5.73,12.74,12.74,0,0,1,1.67,4.3,8.68,8.68,0,0,1,1-.4c.06.07.06.11.15.16A53.47,53.47,0,0,1,422,260.09a9.91,9.91,0,0,1,2.43-2,53,53,0,0,1,.9-11.6,20.15,20.15,0,0,1,.54-2.07c1.16-3.59,3.23-6.4,6.73-7.79a12.64,12.64,0,0,1,1.55,3.17,53,53,0,0,1,1.44,5.49c.75-3.35,2.13-6.23,4.52-8.12a11.12,11.12,0,0,1,2.69-1.52,4.39,4.39,0,0,1,.42.61c1.8,3.09,2.46,8,3.65,12.71.06.26.15.55.21.82a7.25,7.25,0,0,1,.09-.8c.39-4.66.81-9.35,3-14a1.19,1.19,0,0,1,.12-.29,3.25,3.25,0,0,1,.3.51c2.43,4.19,1.59,10.73,5.12,14.7a6.75,6.75,0,0,0,1.35,1.25c0-.36.06-.67.09-1,.18-2.21.36-4.44.63-6.65a42.08,42.08,0,0,1,.83-4.63,28.12,28.12,0,0,1,1.89-5.13,16.19,16.19,0,0,1,2.06,6.24,26.09,26.09,0,0,0,1.95,6.94,10.55,10.55,0,0,1,4.73-3.37l.09,0a.93.93,0,0,1,.18.26,8.19,8.19,0,0,1,.63.9c.08.13.17.24.26.38v0c.75,1.11,1.41,2.23,2,3.34,1.41-1.38,2.39-2.9,3.92-4.14a6.48,6.48,0,0,1,1.41-1c.36.64.65,1.31.95,2s.6,1.43.84,2.16.39,1.14.54,1.72a7.91,7.91,0,0,1,.33,1.12c.18.69.33,1.36.45,2a8.66,8.66,0,0,1,.12.87,10.45,10.45,0,0,1,.21,1.67,1.23,1.23,0,0,1,0,.33A21.85,21.85,0,0,1,481.33,257.72Z"/></g><rect class="cls-9" x="72.66" y="333.5" width="345.44" height="130.89" rx="19.3"/><path class="cls-10" d="M398.8,333.5h-.21a190.3,190.3,0,0,0,16.72-27.21q4-8,7.29-16.36c-100.09,27.69-70.75,26.85-175.76,26.85S157,319.25,71,296.69A190.25,190.25,0,0,0,92.18,333.5H92a19.3,19.3,0,0,0-19.3,19.3v92.29A19.3,19.3,0,0,0,92,464.39H398.8a19.3,19.3,0,0,0,19.3-19.3V352.8A19.3,19.3,0,0,0,398.8,333.5Z"/><path class="cls-11" d="M96,202.58l13.06,28.32H43a13.66,13.66,0,0,1-13.65-13.66v-29.3A13.66,13.66,0,0,1,43,174.28h66Z"/><path class="cls-11" d="M394.75,202.58,381.69,230.9h66a13.66,13.66,0,0,0,13.66-13.66v-29.3a13.66,13.66,0,0,0-13.66-13.66h-66Z"/><text class="cls-12" transform="translate(41.83 207.23)">RUSSIE</text><text class="cls-12" transform="translate(401.8 207.23)">FRANCE</text><text class="cls-13" transform="translate(125.02 447.46)">CONST<tspan class="cls-14" x="59.89" y="0">R</tspan><tspan x="71.12" y="0">UCTEUR DE CHALET</tspan></text><rect class="cls-15" x="129.01" y="407.73" width="21.48" height="3.18"/><rect class="cls-15" x="337.15" y="407.73" width="21.48" height="3.18"/><text class="cls-16" transform="translate(165.66 416.81)">FRANCE</text><text class="cls-16" transform="translate(134 370.44)">LOG HOUSE</text><text class="cls-17" transform="matrix(0.77, -0.63, 0.63, 0.77, 134.48, 105.79)">C</text><text class="cls-17" transform="matrix(0.82, -0.57, 0.57, 0.82, 144.33, 97.68)">H</text><text class="cls-17" transform="translate(155.94 89.69) rotate(-29.86)">A</text><text class="cls-17" transform="translate(166.95 83.43) rotate(-25.93)">L</text><text class="cls-17" transform="translate(175.54 79.22) rotate(-22.32)">E</text><text class="cls-17" transform="translate(185.53 75.11) rotate(-18.47)">T</text><text class="cls-17" transform="translate(196.05 71.68) rotate(-15.89)"> </text><text class="cls-17" transform="translate(199.42 70.64) rotate(-13.4)">F</text><text class="cls-17" transform="translate(209.61 68.14) rotate(-9.17)">U</text><text class="cls-17" transform="translate(223.09 66.03) rotate(-5.06)">S</text><text class="cls-17" transform="translate(232.9 65.13) rotate(-1.42)">T</text><text class="cls-17" transform="translate(243.88 64.86) rotate(2.39)">E</text><text class="cls-17" transform="translate(254.76 65.39) rotate(4.91)"> </text><text class="cls-17" transform="translate(258.27 65.56) rotate(7.83)">&amp;</text><text class="cls-17" transform="translate(271.32 67.48) rotate(10.76)"> </text><text class="cls-17" transform="translate(274.81 68.14) rotate(12.01)"> </text><text class="cls-17" transform="matrix(0.96, 0.27, -0.27, 0.96, 278.27, 68.65)">M</text><text class="cls-17" transform="translate(294.76 73.37) rotate(20.91)">A</text><text class="cls-17" transform="translate(306.61 77.85) rotate(25.64)">D</text><text class="cls-17" transform="translate(319.24 83.95) rotate(30.25)">R</text><text class="cls-17" transform="translate(329.6 90.09) rotate(33.38)">I</text><text class="cls-17" transform="translate(334.38 93.15) rotate(36.3)">E</text><text class="cls-17" transform="translate(343.12 99.54) rotate(40.31)">R</text><path class="cls-2" d="M318.66,193.59c.52-.28-4-3.78-3.57-3.93.28-.5-3.59-2.73-5.24-4.3a5.42,5.42,0,0,0-1.47-1.33,7.87,7.87,0,0,0-2.62-2.19,20.36,20.36,0,0,0-4.66-3.72c-1.4.88-4.12,1.06-4.91,2.77.5.51-12.29,5.34-12.29,6.06,0,0,7.47,8,7.47,8.6s9.75-1.07,9.84-.56a5.73,5.73,0,0,0,2.33-.32l2.35.12c2.92.57,6.71-.2,10.57-.7C314,193.08,318.8,195.05,318.66,193.59Z"/><path class="cls-18" d="M302,142.27l-3,.09c-.07-.77-.63-8.08-.69-8.84.07-.52.15-1,.23-1.54.73-.1,1.52-1.18,1.86-1.86C303.05,131.13,301.32,140.7,302,142.27Z"/><path class="cls-19" d="M255,279.14c-.31,4.24-3.91,2.77-6.2,3.57a31.25,31.25,0,0,0-15.38.62,72.47,72.47,0,0,0,18.52,1.14h0c3,2.62-.76,2.51-1.48,3.63l-1.68,0c-6.74-.67-13.49-1.25-20.27-1.37-1.49,0-3.12.55-4.45-.66,2.43-2.06.11-2.31-1.08-2.31-4.41,0-8.89-.1-12.94,2.18-.89,1-1,2.64-3.24,2.37-4.54-.56-9.13-.67-13.75-1.36l4.66-.56c-2.94-1.6-5.54-.75-8-1.12-1.15-.18-2.83.44-2.75-1.67a2.77,2.77,0,0,1,2.6-2.87c2.17-.22,4.37-.2,6.55-.28h3.16l2.82.07-.27,0c4-.21,8.15.41,12.15-.69l6.95,0,6.29-.09c3.34-.07,6.74.7,10-.59l3.08-.09h5.42l3.11-.12,3-.08Z"/><path class="cls-10" d="M318.59,146.59c-.22,1.15-.51,1.47-1.64,2.43a2.59,2.59,0,0,1-.3.21,7.45,7.45,0,0,1-6.17.65,6.6,6.6,0,0,1-2.07-.65c-.1-.3-.67.17-.68-.37-3.46-.79-5-3.41-5.85-6.34a13.56,13.56,0,0,1-.52-4.48l.11-2.31c-.64-1.56,1.37-3.85-1.31-4.86.87-1,2-.53,3-.37,0,.86-.05,1.72-.07,2.58-.07,3.22,1.82,4.63,4.83,3.75a7.78,7.78,0,0,1,3.48-.33c2.31.43,2.85-2,4.05.59a43.63,43.63,0,0,0,2.29,4.37C318.45,142.83,318.61,143.56,318.59,146.59Zm-6.65-5.37c1.12.56,2,.42,2.05-1s-1.05-1.65-2.39-1.72c-1-.06-2.34-.53-2.42.94C309.08,141.29,310.58,141.45,311.94,141.22Z"/><path class="cls-2" d="M271.08,160.47c.13-2.09,1.57-3.61,2.33-5.43,2.39-.69,4.57-2.53,7.31-1.41,1.1,1.39,2.87,3.09,2.64,4.66,1.64,2.19,1.94,5.28,2.9,7.84-.3.22-1.6-.19-1.9-.19-4.55.12-9.1-.69-13.94.35A10.19,10.19,0,0,0,271.08,160.47Z"/><path class="cls-10" d="M283.64,147.89c.91-.62,2.62-.91,3.52-1.52.28.91.13,2,1.41,2.4,2.52.78,3.92,2.86,5.4,4.83l1.48,2.1c-2.28.67-3.51-1-5-2.22-.66-.54-1.16-1.75-2.15-1.17-1.24.72.08,1.49.31,2.23q1.1,3.42,2.21,6.84c-.08.49-.16,1-.23,1.48l-3.23-5.22C286.85,154.36,283.79,151.29,283.64,147.89Z"/><path class="cls-20" d="M254.59,182.79c-.78-2,.31-2.88,1.86-3.87,1.89-1.21,4.59-1.73,4.84-4.69a4.37,4.37,0,0,1,2.78-1.46,13.15,13.15,0,0,0,2.4,5.77l.18,3.92-.41.56a2.14,2.14,0,0,0-2.05.68c-.46-.22-1.29-.12-1.75-.35,0-.26.09-.83.09-1.09s.33-.56.35-.84c.09-1.47.18-2.95.32-5.27-1.64,1.53-2.71,2.56-3.82,3.55s-2.52,2.15-3.78,3.22Z"/><path class="cls-20" d="M172.71,293c2,1.63,4.15.18,6.23.18,8.31,0,16.63,0,24.95,0-1.36,1.11-3,.57-4.47.62q-11.94.43-23.89.76c-2.24.06-4,1.05-3.94,3.27s2.16,2.13,3.84,2.19a2.69,2.69,0,0,1,2.14.66c-2.6-.17-5.48,1.14-7.64-1.42A9.93,9.93,0,0,1,172.71,293Z"/><path class="cls-21" d="M295.23,137.13c.9-.89,2.45-.15,3.24-1.31,1,0,1,3.67.94,5.09a2.89,2.89,0,0,1-.26,2c-.4,1.29-.43,2.7-1.57,3.67-1.44-1.19-.46-2.89-.92-4.28C296.13,140.6,296.69,138.59,295.23,137.13Z"/><path class="cls-10" d="M279.19,149.85c.51,0,.2.58.7.61.28,1.06.55,2.12.83,3.17-2.74-1.12-4.92.72-7.31,1.41C274.54,152.93,277.16,151,279.19,149.85Z"/><path class="cls-22" d="M275.07,303h.05s0,0,0,0Z"/><path class="cls-21" d="M276.75,142.69l0,.2.16.05Z"/><path class="cls-18" d="M281.46,172.53c2.58,1,5.08-.78,7.64-.34,5.36,2.09,9.7-.72,14.16-2.93a17.67,17.67,0,0,0,2.91-1.67c4.74-1.7,9.31,0,13.93.66.88,1.46.15,1.79-1.18,1.64-6.46-.74-11.12,2.63-15.45,6.74l-2.05,1.49-.21.15-.26.16-.15.11a12.66,12.66,0,0,0-2.16,1.72,11.22,11.22,0,0,1-2.46,1.75c-.35.19-.47.36-.84.59-2.72,2.32-6.18,2.81-9.42,4l-1.47.38-1.18.5c-4,1.74-5.32.81-5.85.51a4.52,4.52,0,0,1-.92-.53c-3.07-.85-2.72-4.19-4.4-6.05-1-3.67,2-4.74,4-6.5a10.46,10.46,0,0,1,2.42-1.7l1.32-.65Z"/><path class="cls-18" d="M335.58,179.09a16.53,16.53,0,0,1-4.07,8.44c-8.87.51-16.63-2.39-23.61-7.69l-1-.69-.93-.76c-.21-1.59,1.15-2.14,2-3,4.07-4.06,9.34-2.41,14.14-3l1,.28,1.55.22C329.73,172.54,332.39,176.29,335.58,179.09Z"/><path class="cls-23" d="M321.21,269.46c-3.46-3.35-6.9-1.65-10.07-1.59,0-.42-.12-.83,0-.88,4-2.09,6.42-4.42,2.22-8.74-1-1-.32-2.74.84-3.82,2.92-2.73,3.64-6.43,4.33-10.08,1.91-10.11,6-19.85,5-30.51a21,21,0,0,1,3.27,16.38c-1.93,9-2.54,18.29-5.43,27.11-.15.47-.41,1.27-.22,1.43C325.54,262.34,321,265.58,321.21,269.46Z"/><path class="cls-23" d="M275.25,221c1.35-1.7,2.72-3.39,4.05-5.11.6-.78,1.36-1.37,2.28-.81s.33,1.32.16,2.08c-1.09,4.59-3.54,8.52-5.89,12.52-.5.85-1.83,1.55.29,2.43,1.19.5-.06,1.86-.59,2.58-1.51,2.08-3.38,3.91-4.76,6.06-1.93,3-4,6-3.47,10,.21,1.71-.28,4.13-2.48,4.13s-2.71-2.31-2.88-4.3c-.24-2.81,1.42-5.19,1.73-7.87,3.1-4.47,4.54-9.73,6.87-14.56l.83-1.54,1.49-1.7C273.93,223.75,275.39,222.87,275.25,221Z"/><path class="cls-24" d="M182.22,323.94c-5.34.43-10.68.88-16,1.28-1.65.12-3.32.15-5,.18-1,0-2.34.05-2.63-1.06-.33-1.27,1.07-1.62,1.95-1.93,2.53-.89,5.12-1.62,7.68-2.42,3.28-.35,7.47-2.29,9.6-.34,2.31,2.12,4,.93,5.95,1.15.19,1.64,1.49,2.1,2.45,1.27,1.95-1.71,4.14-1.16,6.25-1.17,15.21,0,30.42-.16,45.63.05,3.86.05,6.63-.59,7.63-4.68l.74,0,1,1.54c0,.51,0,1,0,1.54s-.09,1-.14,1.56l-1.53.74c-4.74,0-9.48-.34-14.16.72l-6,0-3.09.16-10.84.32-14.65.56-1.67,0a26.88,26.88,0,0,0-12.51.54Z"/><path class="cls-20" d="M256.72,207.77l.09,2.39c.14,2.54.29,5.08.43,7.61l.05,0c-1.3,1.69-.52,3.64-.68,5.47a1.07,1.07,0,0,0-.08.66,26.18,26.18,0,0,0-1.48,8.63c-.45.23-.74,1.86-1.38.29a14.12,14.12,0,0,1-.5-3.36c.14-.5.22-1.14-.32-1.3-.84-.24-.94.61-1.21,1.14-.92,1.15-1.85,2.3-2.82,3.53-.8-1,.3-1.75.05-2.55.8-.57.82-1.48,1-2.33.2-.48.4-1,.59-1.45a5.3,5.3,0,0,0,1.47-4.07l0,.05c2.26-2.21,2-4.9,1.87-7.78-.27-5.75-.08-11.53-.08-17.29l-1.23-.06q-1.35,7.89-2.69,15.77c-.14.86-.08,1.79-.91,2.39,0-1-.09-2-.13-3-.66-1.12-.19-3-2.2-3.21l-.06-1.56c2.58-2.42-1.18-4.07-.75-6.23l0-1.44c0-1.6,0-3.19.08-4.79,1.36,1.79.69,4.37,2.38,6.43,1.05-1.85-.72-4.61,2.21-5.17a10.49,10.49,0,0,1,5.16-1.12l1,2.36.54,1.56c-.38,1.73,1.83,3.3.33,5.11-1.53.09-.53,1.15-.68,1.76Z"/><path class="cls-24" d="M281.47,306.68,280,305.32c1.2-1.44,2.48,1.11,3.69-.06-1.14-2.51-3.67-4.37-6-4.39-1.44,0-2.51.44-2.58,2.11l.07,0a5.22,5.22,0,0,1-4.88-3.15c-1-2.37,2.9-1.5,3-3.71-2.31-1.56-5.51-2.39-6.46-6.27l10,3.83,2.2.93,4,2.16.77.06a19.31,19.31,0,0,0,5.36,2.51c1.07,1.27,3.27,1,3.87,2.93-2.19,1.59-4.18,3.31-4.62,6.19h0c0,.3,0,.64-.06,1-.17,1.16-.54,2.11-2,2C285.48,309.06,283.45,307.9,281.47,306.68Z"/><path class="cls-20" d="M214,218.64c0-.49,0-1,0-1.49l.66-.83c1.6,0,2.05,1.6,3.13,2.33,0,.26,0,.52,0,.78-.85.11-1.67.51-1.46,1.42,1.29,5.57,2.75,11.08,7.26,15.27.54-.9.1-1.48.06-2.09-.25-3.9-3.39-6.92-3.23-10.93l1.85,1.39a146.21,146.21,0,0,1,4.83,15.89c0,.46,0,.92,0,1.38-3.6.42-3.84-3.75-6.62-4.75-.53,1.69.86,2.79,1.3,4.14.39,1.18,1.52,2.53.23,3.5a4.92,4.92,0,0,1-4.37,1c-5.74-1.78-9.58-14.85-4.51-17.3,6.36-3.08.15-5.7,1.23-8.2C214.5,219.75,214.13,219.14,214,218.64Zm7.12,26c-1.91-4.47-3.29-7.91-4.87-11.26-.47-1-.54-3.06-2.32-2.4s-1.71,2.26-1.19,4C214,239,216.61,241.91,221.13,244.6Z"/><path class="cls-20" d="M262.87,193.72c0-.47,0-.95.05-1.43.25-1,.51-2,.77-3l2.15-1.15c1.87.74,3,2.32,4.17,3.8,3.27,4,5.49,8.86,9.92,11.89-3.48.21-5.68-2.33-8.31-3.92-.93-.56-1.71-2-2.89-.6s-.25,2.62.86,3.26c2.63,1.53,2.79,3.89,2.35,6.35a72.69,72.69,0,0,1-2,7.81c-.9,3-1.77,6.07-5.61,6.58l-.11-3.11c.06-.46.11-.92.17-1.39,2.47.1,3.67-1.25,4-3.55.36-2.49.7-5,1-7.47l.24-1.51c-1-2.32-3.83-1-5.22-2.6,0-.63,0-1.25,0-1.88,1-1.26,3.65-2.09,1.18-4.31a.53.53,0,0,0-.31-.48,2,2,0,0,0-.88-1.74,1.06,1.06,0,0,0-.18-.64l-.68-.83-.31-.15-.32.13Z"/><path class="cls-23" d="M314.59,319.41c-3.09-3-6.61-5.85-4-11,.68-1.32-.25-2.74-.54-4.11-1.39-6.64-2.73-13.29-4.11-19.93-.29-1.4-1.65-3.25.82-3.65,2-.34,4.55.22,4.67,2.84.39,9,3.39,17.9,1.67,27-.57,3.08,1.38,5.7,1.64,8.63Z"/><path class="cls-20" d="M229.41,251.19c1.9,5.19,6.58,9.16,7,15.58-2.85-1.43-5.16-2.7-6.92-4.78,4-.27,2-2.53,1-3.79-3.13-4-7.34-6.71-11.85-9a2.51,2.51,0,0,0-3.45.58c-1.88-1.17-2.37-3-3.24-6.06,4,3.45,8.27,3.54,11.68,5.63,1.48.91,2.32-.47,3.5-.53h0l.8.57.19.17.59.68Z"/><path class="cls-23" d="M268,262.64c-7.21.48-7.59.76-7.25,5.43-1.88-.76-4.36-.36-4.87-2.93s.52-4.81,1.61-7c.56-1.12,1.68-.34,2.39,0C262.51,259.37,265.37,260.2,268,262.64Z"/><path class="cls-24" d="M230.43,297.75c5.68,1.69,11.61,1.5,17.41,1.91,4.3.3,5.33,2,4.68,5.69-.2.22-.4.45-.61.67-5.22-.19-10.48.54-15.67-.54,3.59,0,7.18-.18,10.76-.08,2,.05,4.06-.29,4.13-2.35.07-2.21-2.14-2.55-4-2.3-7.42,1-14.52-2.11-21.89-1.7-.24,0-.5-.42-1-.88C226.46,297.29,228.46,297.67,230.43,297.75Z"/><path class="cls-20" d="M227.9,224.9c1.16.95,2.15,2.16,3.8,2.3a2.3,2.3,0,0,0,2.36.57l3.75,1,.12,1.37-.71.17-.85.64v0c-2.27.67-4.42,1.88-6.9,1.62l0,0c.09-1.06-.61-1.45-1.45-1.73-.56-1.92-2.15-3.15-3.17-4.77-.75-1.17-.69-1.87.75-2.21l.75.2C226.66,224.75,227.28,224.82,227.9,224.9Z"/><path class="cls-23" d="M257.36,278.31l-2.33,0h0c-.8-1.14-2-.65-3.09-.81l-.08-.77a21.52,21.52,0,0,0,.78-2.56c.59-3.45,2.14-4.47,5.52-3.5,1.68.48,2.74,1.32,2.05,3.35a22.39,22.39,0,0,0-.63,3.38l0,.07Z"/><path class="cls-20" d="M262.8,241.07l.06-7.56c1.34-2.53-.11-5.52,1.3-8,1.29,4,3.43,1.77,5.41.75l.27.25C267.71,231.45,265.79,236.52,262.8,241.07Z"/><path class="cls-20" d="M261.5,296.81c2.76,3.27,2.18,6.62.23,10-3,2-4.74.55-6-2.2,0-.51,0-1,0-1.53,0-.28,0-.56-.05-.84.22-1,.43-2,.64-3l2.55-3.14,1.68-.11-.09,0ZM257.35,299c.24,2.57-1,4.75,1.45,6.32.83.53,1.8.7,2.37-.26,1.34-2.27,1.16-4.55-.3-7.09-.26,1.69-.47,3-.7,4.55C258.92,301.51,259.48,300,257.35,299Z"/><path class="cls-20" d="M281.94,207l.09.81-.72.7a2.43,2.43,0,0,0-1.49,2.43l-3.09,3.94-.63.7a1,1,0,0,0-.23.61L275,217c-1.18,1.11-.42,2.61-.79,3.88a1.33,1.33,0,0,0-1.5,1.36l-.83,1.51c-.2.35-.41.7-.62,1.05l-.83,1.46c-.21.07-.41.13-.62.18l-.27-.25a49.79,49.79,0,0,1,6.35-14.74A9.61,9.61,0,0,1,281.94,207Z"/><path class="cls-20" d="M239.53,227.31a4.29,4.29,0,0,0-3-1c-.17-.5-1.09-.92-.17-1.54,2.18.12,4.3,0,6.12-1.42l7.07-.1a4.71,4.71,0,0,0-3.07,3.1l-.75.25-.8.54Z"/><path class="cls-20" d="M233.22,237.16c-2-.45-3.52-1.46-3.85-3.69l.1-.11c2.77,1.31,4.82-.44,7-1.65l1.42.87-1.46,2.31Z"/><path class="cls-21" d="M269.84,226.47c.21-.05.41-.11.62-.18,0,.61.07,1.22.1,1.83-2.33,4.83-3.77,10.09-6.87,14.56,0-.72-1.73-.44-.89-1.61C265.79,236.52,267.71,231.45,269.84,226.47Z"/><path class="cls-20" d="M249.75,179.8c1.68.55,1.51,3.14,3.59,3.24v1.23a6.87,6.87,0,0,1,.15,1l1,.94c-.33,1.16.11,2.71-1.61,3.15-.24-1.36-.33-2.85-1.47-3.77C249.47,184,249.4,182,249.75,179.8Z"/><path class="cls-10" d="M251.87,276.7c0,.25,0,.51.08.77s0,.53,0,.8a3.31,3.31,0,0,0-.07.55l-3,.08c-.07-.29-.13-.58-.19-.86,0-1.73,1-3.44.09-5.18l0-1.56c0-.51,0-1,0-1.53,2.13.3,1.37,2,1.6,3.24S249.55,276.2,251.87,276.7Z"/><path class="cls-24" d="M270.38,306.42l-1.33-.41h0c-1.91-3.09-3.6-.95-5.33.23l-.39.75c.11.88-.3,2,1,2.36.72-3.1,2-3.11,3.8-.73,2.52.69,2.68,2.65,2.49,4.73-.12,1.27-.16,2.82-1.87,2.87s-2.52-1.12-2.79-2.65c-.16-.87.2-1.94-.2-2.62s-.6.2-.81.53l-.72,1.67.21,2c1.3,2.52,2.89,4.33,6,2.49C273.46,313.89,271.78,310.16,270.38,306.42Z"/><path class="cls-25" d="M291.8,187.59c-1-.83-2.08.08-2.84,1a6.41,6.41,0,0,1-1.19.9l-.12,1,1.46.23,1.76-.41C291.2,189.41,293.19,188.77,291.8,187.59Z"/><path class="cls-22" d="M272.73,222.27a1.34,1.34,0,0,1,1.51-1.36l1,.1c.14,1.86-1.32,2.74-2.37,3.87l0,0C272.81,224,272.77,223.12,272.73,222.27Z"/><path class="cls-22" d="M260.51,225.77c.26.44.55.7.56,1,0,.53-.27,1-.85.78-.2-.07-.38-.6-.36-.89S260.21,226.15,260.51,225.77Z"/><path class="cls-21" d="M253.45,317c-.11.81-.22,1.62-.32,2.43-1.4-.3-1.21-1.38-1.17-2.38Z"/><path class="cls-23" d="M319.22,271.8l-.34-.52.73-.4c.07.21.23.45.16.61S319.42,271.7,319.22,271.8Z"/><path class="cls-10" d="M227.45,246c.09-.21.14-.54.29-.6a.65.65,0,0,1,.59.26.63.63,0,0,1-.26.59C227.92,246.26,227.66,246.05,227.45,246Z"/><path class="cls-22" d="M299.65,219.21c-.09.21-.14.54-.29.6s-.41-.15-.62-.25c.09-.21.14-.54.29-.6S299.44,219.11,299.65,219.21Z"/><path class="cls-22" d="M245,227.93v-.77l.8-.54C245.49,227.06,245.23,227.5,245,227.93Z"/><path class="cls-20" d="M228.11,233.25a2.09,2.09,0,0,0-.09-.51l1.46-.15,0,0v.79l-.1.11Z"/><path class="cls-10" d="M228.72,250.27l-.59-.68Z"/><path class="cls-10" d="M276.1,215.53l.63-.7Z"/><path class="cls-22" d="M263.54,193.78l.68.83Z"/><path class="cls-10" d="M275,217l.84-.89Z"/><path class="cls-22" d="M283.26,187.53l1.19-.51Z"/><path class="cls-23" d="M314.78,319.22l.26.46-.45-.27Z"/><path class="cls-10" d="M306.92,179.15l1,.69Z"/><path class="cls-10" d="M227.94,249.42l-.8-.57Z"/><path class="cls-10" d="M301.42,178.12a.8.8,0,0,1-.47.31"/><path class="cls-24" d="M259,313.86l-.84-.79C258.75,313,258.92,313.39,259,313.86Z"/><path class="cls-21" d="M263.72,306.24l-.39.75-.58-.05Z"/><path class="cls-22" d="M260.62,318.52a1,1,0,0,1,0-.74,2.76,2.76,0,0,1,.25.52C260.85,318.35,260.7,318.44,260.62,318.52Z"/><path class="cls-22" d="M251.92,313.15a1.85,1.85,0,0,1,.7.17l-.72.47C251.91,313.57,251.92,313.36,251.92,313.15Z"/><path class="cls-19" d="M230.43,297.75c-2-.08-4-.46-6.2.42.51.46.77.89,1,.88,7.37-.41,14.47,2.7,21.89,1.7,1.86-.25,4.07.09,4,2.3-.07,2.06-2.14,2.4-4.13,2.35-3.58-.1-7.17,0-10.76.08l-4.44-.08c-2.08-3.4-5.29-4.08-9.37-2.33-2.08.89-4.51,2.21-6.14-.89l.23,0,.23.05c1.08-.85,2.07-1.71.18-2.76-4.13-.45-8.27-1-12.33.45-2.51,1.07-6.46,0-6.52,4.7,0,1-1.5.75-2.33.69-5.1-.39-10.19-.85-15.56-1.3,2.11-2,4.52-1.66,6.72-2.69l-9.34-.66a2.69,2.69,0,0,0-2.14-.66c-1.68-.06-3.8,0-3.84-2.19s1.7-3.21,3.94-3.27q12-.31,23.89-.76c1.5-.05,3.11.49,4.47-.62,15.43-.37,30.87-.75,46.3-1,1.13,0,3.28-.93,3.13,1.42a3.41,3.41,0,0,1-3.25,3.59C243.53,297.91,237,297.76,230.43,297.75Z"/><path class="cls-24" d="M224.05,286.1c1.33,1.21,3,.64,4.45.66,6.78.12,13.53.7,20.27,1.37-7.16.19-14.3.24-21.46-.27-4.18-.3-8.41.4-12.62.45-.91,0-3.67.59-1.68-2.1C216.68,285.59,220.34,282.88,224.05,286.1Z"/><path class="cls-24" d="M251.92,284.47a72.47,72.47,0,0,1-18.52-1.14,31.25,31.25,0,0,1,15.38-.62c-.66.73-.22,1,.49,1.08C250.17,284,251.22,283.55,251.92,284.47Z"/><path class="cls-24" d="M250.45,288.11c.72-1.12,4.46-1,1.48-3.63,1.87-.19,2.66.77,2.25,2.47C253.63,289.24,251.82,288.1,250.45,288.11Z"/><path class="cls-23" d="M251.86,278.82a3.31,3.31,0,0,1,.07-.55H255c0,.29,0,.58-.05.87Z"/><path class="cls-21" d="M255.7,302.24c0,.28,0,.56.05.84l-1-.4Z"/><path class="cls-26" d="M306.2,167.56h0s0,0,0,0Z"/><path class="cls-2" d="M337.76,164.21c-.38-1.88-.47-3.81-.68-5.72-.21-.23-.41-.47-.62-.71a6,6,0,0,1-1.14-1.79c-1.73-4.59-8.54-7-12.19-7-2.24-.67-4-.79-5-1.07-.6.8-.6.8-1.16,1.13-1,2.36-7.21,2.35-8.41,4.58-.18.33-.77.64-.85.75-1.22,1.78-2.15,1.54-3,3.92L302.79,167c.14.18.5,1.49.63,1.66,1,0,1.74-1.15,2.77-1.09.95-2.17,2.8-2.38,4.79-2.05a38.71,38.71,0,0,0,9.12.53h0c.26,0,1,.1,1.25.1a2.75,2.75,0,0,0,1.87-.12c.94.56,1.36-.58,3,.83,2.09.11,7.06-.25,7.06-.25C334.29,166.48,338.2,166.4,337.76,164.21Z"/><path class="cls-22" d="M227.23,279.7c3.27-1.37,6.67-.42,10-.59C234,280.4,230.57,279.63,227.23,279.7Z"/><path class="cls-21" d="M248.66,278c.06.28.12.57.19.86l-3.11.12c.06-.34.13-.69.19-1Z"/><path class="cls-19" d="M228.57,193.22c2.29.53,2.18,2.54,2.4,4.19a38.89,38.89,0,0,1,.07,5c-1.6-3.53-5.12-3-7.24-2-2.74,1.25-3.56.13-4.93-1.51-.55-.67-1.11-2-2.43-1.36a2.94,2.94,0,0,0-1.65,2.46c-.28,2.67-.53,6.75-.83,9.43-.21-.11-1.26-.93-1.47-1a6.11,6.11,0,0,1,.68-1.31c0-.5-.11-1-.16-1.5l-.12-2.36.42-8.33.46-1,1.8-1c.5,3,4.91,2.09,5.5,5.25,0,.22,1.86-1.42,3.26-1.29.45,0,1-.58,1.4-.45C229.16,197.5,228.51,195.06,228.57,193.22Z"/><path class="cls-27" d="M207.75,179.38a3.86,3.86,0,0,0,2.33,1.21c2.08.21,2.6,1.69,2.11,3.31-.72,2.42-2.28,1.26-3.64.53-.39-1.88-1.91-1.38-3.11-1.4-3.1,0-6.19,0-9.29,0h0c.2-2.4-.71-4-3.17-4.59h0c0-.57,0-1.13.08-1.7,1.52-1.5,3-.11,4.17.4,2.2.93,4.17,2.39,6.29,3.54,1.55.83,3.25,1.86,4.26-.74A1.32,1.32,0,0,1,207.75,179.38Z"/><path class="cls-20" d="M196.15,183c3.1,0,6.19,0,9.29,0,1.2,0,2.72-.48,3.11,1.4a13.13,13.13,0,0,0-7.14-.23C199.48,184.62,197.63,184.67,196.15,183Z"/><path class="cls-20" d="M216.3,174.49c-.34,1.51.88,2.27,1.61,3.26-.83.66-2,2-2.7.93s-2.07-2.74-.54-4.38Z"/><path class="cls-20" d="M193,178.44c2.46.56,3.37,2.19,3.17,4.59A13.13,13.13,0,0,1,193,178.44Z"/><path class="cls-20" d="M193.07,176.74c0,.57,0,1.13-.08,1.7l-2.23-1.69c-.09-1.16-.1-2.26,1.51-2.29C192.33,175.29,192.15,176.21,193.07,176.74Z"/><path class="cls-21" d="M206.38,178.2c.62.21,1.25.4,1.37,1.18a1.32,1.32,0,0,0,0,.56l-1.54-1.58Z"/><path class="cls-21" d="M213.77,193.87l-.46,1C213.47,194.51,213.62,194.19,213.77,193.87Z"/><path class="cls-20" d="M225.68,273.61a6.38,6.38,0,0,0,.35,1.07c1.58,3,.54,4.06-2.62,3.59-.75-.11-1.5-.18-2.24-.27-.06-6.07-1.69-12-2.12-17.95-.24-3.41-.85-6.21-2.83-8.83a28.2,28.2,0,0,1,10.15,8.47c-.59.15-1.6.2-1.27,1C226.76,265,225,269.34,225.68,273.61Z"/><path class="cls-28" d="M226.37,259.69a28.2,28.2,0,0,0-10.15-8.47c-.34-.47-.68-.93-1-1.4a2.5,2.5,0,0,1,3.44-.58c4.51,2.25,8.72,4.94,11.85,9,1,1.26,3.05,3.52-1,3.79l0,0c-.06-1.11-.66-1.55-1.74-1.36Z"/><path class="cls-18" d="M307.65,151.9c0,2-.74,1.48-1.45,3.57-.47,1.4-3.92,3.21-5.5,1.17-2.74.57-3-.48-4.38-2-.24-.72-.82-3.2-1.06-3.92l2.32-4.11c1.14-1,1.17-2.38,1.57-3.67.35-1.13.34-2.74,2.12-2.93.78,3.84,2.33,6.59,6.42,8.63.41.2.79.35,1.14.54a12.26,12.26,0,0,0,2.67.81,21,21,0,0,1-3.86,2Z"/><path class="cls-18" d="M314.31,127.51a7.19,7.19,0,0,1,2.05,3.59c0,.58-.51,1.27-1.06,3.1a12.74,12.74,0,0,0-.32,2c-1,.64-1.89.52-3.45.28a7.82,7.82,0,0,0-3.4.26c-3.11,1-5.09-.41-5-3.7,0-.86.05-1.72.07-2.58l-.1-.06c1.65.41,2.12-.64,2.4-1.93l2.13-.57,6.28-.53A.5.5,0,0,0,314.31,127.51Z"/><path class="cls-29" d="M311.94,141.22c-1.36.23-2.86.07-2.76-1.82.08-1.47,1.46-1,2.42-.94,1.34.07,2.42.27,2.39,1.72S313.11,141.78,311.94,141.22Z"/><path class="cls-21" d="M316.65,149.23s0,.08,0,.12S316.76,149.25,316.65,149.23Z"/><path class="cls-18" d="M302.28,167.51c-.07.5-.14,1-.2,1.51-4.25.95-8.47,2.22-12.91,1.54-2.84-2-2.49-3.56.7-4.67l2.37-.72c1.92-1.78,4-2.14,6.2-.58l1.93,1.34A3.26,3.26,0,0,0,302.28,167.51Z"/><path class="cls-27" d="M302.84,207.89c-1.7-4.59-1.94-9.48-3-14.21,0-.42-3-11.64-3-12.06-1.41.74-2.08,1.42-3.45,2.25-.08,1.53.53,2.22,1.65,10,0,.52,0,1,0,1.57l.06,6.11c.12,2,.25,4.08.37,6.13l6.06,4.71c1.26.28,1.65-.46,1.79-1.51Z"/><path class="cls-27" d="M278.31,131.11l0,0h0Z"/><path class="cls-27" d="M278.31,131.11l0-.05Z"/><path class="cls-2" d="M324.71,169.8l1.57-1.5c3.6-.55,7.12.25,10.58,1,2.28.48,4.62,2,3.87,4.64-.45,1.61.13,5.17-3.67,4.38a14.2,14.2,0,0,0-3.12-3.22C331.1,172.85,327.52,172,324.71,169.8Z"/><path class="cls-19" d="M238.76,213.2l.83.14c.36,1.31-3.27,2.45-.57,3.52,3.31,1.31.75,2.66,0,2.81-2.9.63-1.8,2.1-1.06,3.61-1.29.28-2.72-.19-3.9.69l0,.12-.78,0-1.56.07a1.21,1.21,0,0,0-.74-.19l-1.59-1.44-.92-1.33c-.6-1.66,1.33-3.2.2-4.87.12-.62.12-1.71.37-1.77,3.39-.79,2.23-2.61,1.53-4.82s-1.06-4.49.39-6.61a1.85,1.85,0,0,0,1.21,1.73C232.34,212.5,232.34,212.5,238.76,213.2Zm-5.27,3.11c-2.34-.09-2.41,2.28-3,3.62s.8,1.77,2.06,1.82c3.62.14,2-2.84,2.59-4.42C235.9,215.21,234.59,216.06,233.49,216.31Z"/><path class="cls-20" d="M228.74,216.36c1.13,1.67-.8,3.21-.2,4.87-2-.25-2.87-1.51-3-3.38l-.69-.91c-2.36.53-2.42-1.24-2.76-2.75.31-.4.61-.81.09-1.27l-.61.86c-2.42,1.53-4.83,3-6.08-1.24-1.31-2.27.17-.21.26-.31,3.47,1.12,5.59-1.32,8.51-3.62-1.37,3.91-.45,4.9,2.48,2.8C227.92,213,225.75,215.68,228.74,216.36Z"/><path class="cls-28" d="M220.44,223.1c-.16,4,3,7,3.23,10.93,0,.61.48,1.19-.06,2.09-4.51-4.19-6-9.7-7.26-15.27-.21-.91.61-1.31,1.46-1.42l.88.6.07.13.63.83c.12.4.23.8.34,1.21a.63.63,0,0,0,.62.87Z"/><polygon class="cls-22" points="233.34 224.12 233.35 224.12 231.45 224.04 231.45 224.04 233.34 224.12"/><path class="cls-10" d="M214.66,216.32l-.66.83Z"/><path class="cls-10" d="M224.8,216.94l.69.91Z"/><path class="cls-10" d="M219.39,221l-.63-.83Z"/><path class="cls-20" d="M220.35,223.07a.63.63,0,0,1-.62-.87Z"/><path class="cls-2" d="M299.23,158c-.25,0-.54-.17-.74-.09-2.32,1-2.89-.33-3-2.24-2.28.66-3.51-1-5-2.23-.66-.54-1.16-1.75-2.15-1.17-1.24.72.08,1.49.31,2.23q1.1,3.42,2.21,6.84c-.08.49-.16,1-.23,1.48l1.61,2.31c1.92-1.78,4-2.14,6.2-.58l1.93,1.34c1.77-.83,1.5-1.87,1.5-4A4.92,4.92,0,0,0,299.23,158Z"/><path class="cls-20" d="M249.7,179.81l-.88-.63Z"/><path class="cls-19" d="M206.25,178.36l1.54,1.58c-1,2.6-2.71,1.57-4.26.74-2.12-1.15-4.09-2.61-6.29-3.54-1.22-.51-2.65-1.9-4.17-.4-.92-.53-.74-1.45-.8-2.28C197.45,173.9,202.59,173.48,206.25,178.36Z"/><path class="cls-27" d="M290.62,162.85l-3.71-7.08c-.86-2.5-2.36-4.81-2.48-7.54a13.92,13.92,0,0,0-1.08-2.83,11.56,11.56,0,0,1-1.55-3.65c-.71-2.8-2.39-5.33-2.62-8.26h0c-.05-.52-.27-.71-.32-1.23-.23-.26-.23-1.3-.24-1.3s-.59-4.21.3-6.3l.13-.06v-.18c1.87-2.64,1.14-5.67.78-8.46-.64-5-1.25-4.2-4.6-4.07-2.8.41-2.64,2.15-2.64,2.15,0,.27.07.55.1.82l1,0a3.77,3.77,0,0,1,3.68,0,1.84,1.84,0,0,1,1.1.11,1.84,1.84,0,0,0-1.1-.11c1.58,3.3.69,6.37-.87,9.38l-1.33-.07c-.65,0-1.49.73-2.13.74,0,0,.18,1.19.52,4.06.29,1,.08,2,.37,3a14.18,14.18,0,0,1,.41,2.11c1.38,5.3.81,6,2.23,8.77l.35.71a18.67,18.67,0,0,1,1.53,5.35,7.42,7.42,0,0,0,1,3.23l0,0c.88,1.19.58,1.27,1.06,2.19,1.1,1.39.78,2.08,1.3,3.79a27.26,27.26,0,0,1,3.41,7.16c.25-.28-.78,1.88,4.62.59l2.37-.72Z"/><path class="cls-28" d="M230.45,169.08c-.9-.17-1.51-.38-2.24.28-.5.55-1.4.65-1.9,1.2l8.57.13,1.58-.07C234.41,169.89,232.5,169.81,230.45,169.08Z"/><path class="cls-28" d="M226.31,170.56l-1.39.2a2.13,2.13,0,0,0-2.45,1.37h0l-4.63,2.19c0,.29,0,.58,0,.87,2.45,1.74,5.62-.33,8.09,1.51.21.16,1.43-.42,1.52-.81,1-4.15,4.12-3.74,7.22-3.76,2.18,0,.32-.93.21-1.44Z"/><path class="cls-23" d="M322.15,172.4l1,.28Z"/><path class="cls-22" d="M271.29,224.83l.63-1.05.92,1.05,0,0-1.5,1.69Z"/><path class="cls-10" d="M271.29,224.83l.09,1.74-.82,1.55c0-.61-.06-1.22-.1-1.83C270.74,225.81,271,225.32,271.29,224.83Z"/><path class="cls-28" d="M238,223.28c-.74-1.51-1.84-3,1.06-3.61.72-.15,3.28-1.5,0-2.81-2.7-1.07.93-2.21.57-3.52l2.72-.32c-1.88-2.11-3.68-4-3.93-6.73-.22-2.41-1.29-4.59,1.34-6.88,1.66-1.44.89-4.72.36-7a26.33,26.33,0,0,1-.19-8.5,37,37,0,0,1,4.31,12.78c.18,1.29-.61,3,1.48,3.45l0,1.44c-1.66,2.3-.19,4.24.75,6.23l.06,1.56c-.07,1.62-.15,3.24,2.2,3.21,0,1,.09,2,.13,3-.21,1.11-2.21,2.16-.68,3.19,1,.69,1.68-1,2.43-1.79.43-.42.84-.86,1.26-1.29l0,6.86,0-.05-2.35.79-7.07.1Z"/><path class="cls-22" d="M251.89,222.53l0-6.86c.18-1.58-.71-2.25-2.1-2.5q1.35-7.89,2.69-15.77l1.23.06c0,5.76-.19,11.54.08,17.29C253.89,217.63,254.15,220.32,251.89,222.53Z"/><path class="cls-21" d="M249.76,213.17c1.39.25,2.28.92,2.1,2.5-.42.43-.83.87-1.26,1.29-.75.75-1.41,2.48-2.43,1.79-1.53-1,.47-2.08.68-3.19C249.68,215,249.62,214,249.76,213.17Z"/><path class="cls-27" d="M246.46,207.8c-.94-2-2.41-3.93-.75-6.23C245.28,203.73,249,205.38,246.46,207.8Z"/><path class="cls-27" d="M248.72,212.57c-2.35,0-2.27-1.59-2.2-3.21C248.53,209.56,248.06,211.45,248.72,212.57Z"/><path class="cls-28" d="M227.74,260.61c1.08-.19,1.68.25,1.74,1.36A1.6,1.6,0,0,1,227.74,260.61Z"/><path class="cls-28" d="M221.13,244.6c-4.52-2.69-7.14-5.56-8.38-9.69-.52-1.71-.46-3.35,1.19-4s1.85,1.42,2.32,2.4C217.84,236.69,219.22,240.13,221.13,244.6Z"/><path class="cls-28" d="M264.16,225.47c.06-.73.12-1.45.17-2.18,3.84-.51,4.71-3.6,5.61-6.58a72.69,72.69,0,0,0,2-7.81c.44-2.46.28-4.82-2.35-6.35-1.11-.64-2-1.92-.86-3.26s2,0,2.89.6c2.63,1.59,4.83,4.13,8.31,3.92,1.37.6,3,1.05,2,3.14a9.61,9.61,0,0,0-6,4.53,49.79,49.79,0,0,0-6.35,14.74C267.59,227.24,265.45,229.43,264.16,225.47Z"/><path class="cls-24" d="M261.5,296.81l-1-.78C261.09,295.93,261.3,296.36,261.5,296.81Z"/><path class="cls-20" d="M248.75,272.86l0-1.56c0-.51,0-1,0-1.53a6.56,6.56,0,0,0-3.64-1,2.52,2.52,0,0,1-2.52-2c-2.33-8.6-7.88-16-9.32-24.93l-.69,0,0,1.52c.05,1.54.81,3.35-1.51,4l.77,2.07c2.1,2.62,3,5.84,4.53,8.78,2.41,4.75,2.81,10.32,6.11,14.69h0a9.89,9.89,0,0,0,3.43,5l2.73.05C248.66,276.31,249.69,274.6,248.75,272.86Zm-6.21.08.14-.13h0Z"/><path class="cls-21" d="M237.22,230.33l-.85.64Z"/><path class="cls-21" d="M255,278.28h-3.11c0-.27,0-.54,0-.8C253,277.63,254.24,277.14,255,278.28Z"/><path class="cls-10" d="M257.35,299c2.13,1,1.57,2.53,2.82,3.52.23-1.51.44-2.86.7-4.55,1.46,2.54,1.64,4.82.3,7.09-.57,1-1.54.79-2.37.26C256.38,303.73,257.59,301.55,257.35,299Z"/><path class="cls-10" d="M272.84,224.83l-.92-1.05c.27-.51.54-1,.82-1.51C272.77,223.12,272.81,224,272.84,224.83Z"/><path class="cls-10" d="M262.81,282.14v0h0Z"/><path class="cls-28" d="M245,189.22v0l0,0Z"/><path class="cls-10" d="M238,223.28l4.52.09c-1.82,1.41-3.94,1.54-6.12,1.42-.55-.9-1.52-.58-2.3-.82C235.27,223.09,236.7,223.56,238,223.28Z"/><path class="cls-20" d="M294.91,309.32l-.37,0"/><path class="cls-28" d="M251.42,185.58c-1.95-1.57-2-3.59-1.67-5.78h-.05l-.88-.63-1-.74a2.9,2.9,0,0,1-2.24-1.43l-3-.23-.07.07c2.38,3.5,2.69,7.44,2.4,11.5,0,.28,0,.57,0,.85l1.49.83h.84c.23-.08.46-.17.68-.27l.75.24c.62,1.08-1.07,3,1.29,3.45.21-.19.41-.39.61-.59l.75-1.83.68-.9h0l.72-.79h.06C252.65,188,252.56,186.5,251.42,185.58Z"/><path class="cls-19" d="M241,313.08a40.52,40.52,0,0,0-4.54.27c-1.26.87-13.46,1-18.6,1.43l-3.91-.1-2.17.09h0c-1.05,1-2.74.2-4.55,1.46H213l32.69,0c-1,4.09-3.77,4.73-7.63,4.68-15.21-.21-30.42-.1-45.63-.05-2.11,0-4.3-.54-6.25,1.17-1,.83-2.26.37-2.45-1.27,1.33-.74,2.08-1.6.6-2.93a1,1,0,0,1-.59-.11h0c-6.49.13-13.05-.44-19.4,1.54-3.1.44-6.35.4-9.22,1.58a5.37,5.37,0,0,0-3,4.23c-.15.77-1.1,1-2.51,1-12.34,0-24.67,0-37.85,0a47.07,47.07,0,0,1,13.13-2l1.54-.25c2.53,0,5.15.42,7.75-1.24-2.85-.09-5.37-.42-7.89.08l-1.44,0c-4.17-.12-8.36-.7-12.48.49-1.81,0-3.62.09-5.42,0-1.17-.05-2.79.58-3.1-1.36-.24-1.57-.19-3.09,1.27-4.21a7,7,0,0,1,4-1.32c22.25-1.36,44.51-2.66,66.76-4.1,16.32-1.06,32.63-2.31,49-3.43,6.57-.45,13.14-.76,19.71-1.14,1.71-.1,3.39-.17,2.54,2.6l-1,1.61a2.87,2.87,0,0,1-2.59,1.39h0Z"/><path class="cls-22" d="M216.75,302.19a4.1,4.1,0,0,0,.18-2.76C218.82,300.48,217.83,301.34,216.75,302.19Z"/><path class="cls-24" d="M209.19,300.63a1.52,1.52,0,0,0-.63.14c-.57.1-.85.17-1.1.23a14.1,14.1,0,0,0-2.45.82c-.87.38-1,.33-1.12.44-1.3.09-2.42.6-2.12,2.06s1.84,1.22,2.9,1.17c9-.42,18.09-.42,27.13-.09-2.08-3.4-5.29-4.08-9.37-2.33-2.08.89-4.51,2.21-6.14-.89-1-.23-2.2.85-2.88-.74-1-2.29-2.6-1.63-4.22-.81"/><path class="cls-28" d="M215.64,212.27c-.23-.16-.39-.37-.61-.54-.36-.79-.72-1.58-1.07-2.37l-.06-1.42c.3-2.67.61-5.34.89-8a2.94,2.94,0,0,1,1.65-2.46c1.32-.65,1.88.69,2.43,1.36,1.37,1.64,2.19,2.76,4.93,1.51,2.12-1,5.64-1.51,7.24,2,0,.27,0,.53,0,.8-1.45,2.12-1.06,4.52-.39,6.61s1.86,4-1.53,4.82c-.25.06-.25,1.15-.37,1.77-3-.68-.82-3.36-2.05-5-2.93,2.1-3.85,1.11-2.48-2.8C221.29,210.91,219.11,213.4,215.64,212.27Z"/><path class="cls-21" d="M238.76,213.2c-6.42-.7-6.42-.7-6.52-8.31,1.14.32.9,1.3,1.09,2.13.53,2.34.43,5.29,4.36,4.45C238.42,211.31,238.7,212.42,238.76,213.2Z"/><path class="cls-19" d="M224.59,193.16c1.36,1,2.2-.23,2.52-1.61h0a1.32,1.32,0,0,0-1-1.6,5.41,5.41,0,0,1-2.13-4.62c0-.74,0-2.07-.65-1.94-4.11.87-2.88-2.9-4.1-4.5-2.39,3.32-7,5.71-4.55,11a2.67,2.67,0,0,0,1.53,1.59"/><path class="cls-27" d="M245,189.21h0c0-.29,0-.58,0-.87.29-4.06,0-8-2.4-11.5l-.3-.38.37.31,3,.23c.38-1.46-1.61-1.94-1.39-3.34h0c-1.58-.45-3.89,1.32-4.67-1.55a4.6,4.6,0,0,0-3.09-1.51l-1.58.07c.11.51,2,1.42-.21,1.44-3.1,0-6.27-.39-7.22,3.76-.09.39-1.31,1-1.52.81-2.47-1.84-5.64.23-8.09-1.51,0-.29,0-.58,0-.87l-1.52.17c-.34,1.51.88,2.27,1.61,3.26.88-.12,1.29.32,1.39,1.15,1.22,1.6,0,5.37,4.1,4.5.63-.13.64,1.2.65,1.94a5.42,5.42,0,0,0,2.12,4.62,1.31,1.31,0,0,1,1,1.59c.48.56,1,1.11,1.43,1.67,2.29.53,2.18,2.54,2.4,4.19a38.89,38.89,0,0,1,.07,5c0,.27,0,.53,0,.8a1.85,1.85,0,0,0,1.21,1.73c1.14.32.9,1.3,1.09,2.13.53,2.34.43,5.29,4.36,4.45.73-.16,1,.95,1.07,1.73l.83.14,2.72-.32c-1.88-2.11-3.68-4-3.93-6.73-.22-2.41-1.29-4.59,1.34-6.88,1.66-1.44.89-4.72.36-7a26.33,26.33,0,0,1-.19-8.5,37,37,0,0,1,4.31,12.78c.18,1.29-.61,3,1.48,3.45,0-1.6,0-3.19.08-4.78-.27-2-.53-4.1-.8-6.14"/><path class="cls-27" d="M227.14,191.56h0l0,0Z"/><path class="cls-28" d="M242.6,176.85l-.3-.38.37.31Z"/><path class="cls-10" d="M303.13,128.88l2.36-.37c-.28,1.29-.75,2.43-2.4,2C303.11,130,303.12,129.4,303.13,128.88Z"/><path class="cls-2" d="M276.83,172.28l0,0c1,.08,2-.4,3,.31.46-.07,1.17,0,1.64-.08.53-1.71,2.56-4.09-1.59-4.3A18.35,18.35,0,0,0,268,170.67c-2,1.12-2.55,2.8-.64,4.64,0,.76,0,1.53,0,2.29.75,1.5,1.74,1.87,3.07.65l1.61-2.18a7.64,7.64,0,0,1,2.7-2.8"/><path class="cls-28" d="M233.49,216.31c1.1-.25,2.41-1.1,1.62,1-.59,1.58,1,4.56-2.59,4.42-1.26-.05-2.71-.4-2.06-1.82S231.15,216.22,233.49,216.31Z"/><path class="cls-10" d="M303.38,210.9c-.14,1-.53,1.79-1.79,1.51h0l-5.85-4.55c.27,0-.55-3.86-.44-6-.05-.1-.09-.21-.14-.31l-.06-6.08c0-.53,0-1.05,0-1.57l-.54,0-3.65-3.51c-.59.13-5.72-3.18-6.42-3.33l-1.19.51-1.52.5c-1.41.29-2.14.85-4,.06-.62-.25-.87-.41-1.25-.59a9.39,9.39,0,0,0-3.79,1.61h0a9.6,9.6,0,0,1,3.81-1.6c-3.07-.85-2.72-4.19-4.4-6.05-1.17-4.29,3.33-4.95,5-7.37h0c1-.47,1.72-1,2.68-1.47a3.35,3.35,0,0,0-3-.31l0,0v0a4.35,4.35,0,0,0-2.07,1,7.65,7.65,0,0,0-2.7,2.8l-1.61,2.18c-1.23,1.13-2.17.9-2.9-.33l-1.09.36c.06,1.4.13,2.79.19,4.18,3.11.09,3.59.62,4.55,5.18-1.93,0-2.55-2.12-4.15-2.44-.33.13-.86-.21-1-.71l-.19-.08.19.08.16-1.47a2.14,2.14,0,0,0-2.05.68l-.9-.37-.47-.31c-.28-.26.05-1.38.06-1.6.09-1.47.18-2.95.32-5.27-1.64,1.53-2.71,2.56-3.82,3.55s-2.52,2.15-3.78,3.22l-1.06-.27c-.68-1.88.39-2.77,1.91-3.73,1.89-1.21,4.59-1.73,4.84-4.69a45.89,45.89,0,0,1-11.69-1l-2.09-.14-5-1.83c-3.28-2.59-11.5-3.56-15.73-2.34.19,1.54-.62.06-.43,1.6,2.92-.11,11.4-.53,13.21,1.61l3.86,0-3.86,0c.78,2.87,3.09,1.1,4.67,1.55h0c-.22,1.4,1.77,1.88,1.39,3.34a2.9,2.9,0,0,0,2.24,1.43h0l1,.74.88.63h.05c1.68.55,1.51,3.14,3.59,3.24h0a10.21,10.21,0,0,0,.16,2.22l1,.94-2,3.54-.35.39,0,0c-.23.29-.45.59-.68.89l-.74,1.82h0c-.2.2-.4.4-.61.59h0c-2.36-.43-.67-2.37-1.29-3.45l-.75-.24c-.22.1-.45.19-.68.27h-.84l-1.52-.85c.27,2.06.53,4.11.8,6.17,1.36,1.78.69,4.36,2.38,6.42,1.05-1.85-.72-4.61,2.21-5.17a10.49,10.49,0,0,1,5.16-1.12h0l1,2.36.54,1.56h0c-.38,1.73,1.83,3.3.33,5.11-1.53.09-.53,1.15-.68,1.76l0,.89,0-.89v1.5l.09,2.33v.06c.14,2.54.29,5.08.43,7.61l.05,0h0c-1.3,1.69-.52,3.64-.68,5.47a1.07,1.07,0,0,0-.08.66h0a26.18,26.18,0,0,0-1.48,8.63c-.45.23-.74,1.86-1.38.29a13.78,13.78,0,0,1-.49-3.31l-.31-.08.3,0c.14-.5.22-1.14-.32-1.3-.84-.24-.94.61-1.21,1.14-.92,1.15-1.85,2.3-2.82,3.53-.8-1,.3-1.75.05-2.55h0c.8-.57.82-1.48,1-2.33.2-.48.4-1,.59-1.45h0a5.3,5.3,0,0,0,1.47-4.07l-2.35.79a4.71,4.71,0,0,0-3.07,3.1h-.17l-.64.34c-.24.41-.49.81-.74,1.22v-.77l-5.43.15a4.29,4.29,0,0,0-3-1h0c-.18-.5-1.09-.92-.17-1.54-.55-.9-1.52-.58-2.3-.82l0,.12-.78,0h0l-1.56.07a1.14,1.14,0,0,0-.34-.15h0a1.33,1.33,0,0,0-.4,0h0l-1.59-1.44-.92-1.33c-2-.25-2.86-1.5-3-3.35-.4-.34.06-.61-.34-.94-2,.28-2.79-1.32-3.1-2.75h0c.31-.4.61-.81.09-1.27l-.61.86c-2.42,1.53-4.83,3-6.08-1.24a8.86,8.86,0,0,0-.41-.81c-.36-.79-.72-1.58-1.07-2.37l0,0,0,0c0-.48-.54-1-.79-2.34h0c0-.5-.11-1-.16-1.5l-.12-2.36h0c.14-1.42.32-2,.42-3.77.21-2,.17-3.23.37-4.86a1.32,1.32,0,0,1,.67-1l1.22-.68h0c.5,3,4.91,2.09,5.5,5.25,0,.22,1.86-1.42,3.26-1.29.45,0,1-.58,1.4-.45,3.43,1.12,2.78-1.32,2.84-3.16-.48-.57-1-1.13-1.45-1.69-.32,1.38-1.16,2.65-2.53,1.63-2.55-1.89-5.36-1.52-8.16-1.6a3.77,3.77,0,0,1-1.68-1.62c-2.49-5.33,2.16-7.72,4.55-11-.1-.83-.51-1.27-1.39-1.15-.83.66-2,2-2.7.93s-2.07-2.74-.54-4.38h0l1.63.19c.51-.09,1-.09,1.52-.17l4.63-2.19h0a2.18,2.18,0,0,1,2.85-1.28l1-.33c.49-.54,3.25-1.56,3.73-2.1-.4,0-2.12.23-2.51.26-4.34.37-8.67,3.83-12.86,4.62-3.16.34-5.72,2.94-9.1,2.39h0a6,6,0,0,0-5.22-3.47,56.22,56.22,0,0,0-8.08.4c-4.57.39-4.56.42-2.63,4.43.27.55-.07.95-.45,1.31-8.22,1.13-16.38,2.82-24.76,2.42a35.94,35.94,0,0,1-3.84-.61c-4.7-1.08-6.85-4.31-7.76-8.61a24.27,24.27,0,0,1,.25-8.45c.21-1.4.88-2.84.26-4.4-6.68,4-8.47,18.75-3,24.27,4,4.06,9.09,4.91,14.83,5.4,9.33.8,15.61-.26,24.76-2.31,5.13-1.06,10.17.7,15.35.48,4.88-.21,6.15,2.14,6.14,7.07,0,3.18-.45,6.38.17,9.55a18.47,18.47,0,0,0,.49,7.72l.36,1.53.22,2.11c-.26,5.77-1.78,11.26-3.32,16.82a24.86,24.86,0,0,0,3.34,21.4c4.51,6.56,5.33,14,6.14,21.42l-4,4.58c-3.79.07-7.58.07-11.37.15a28.42,28.42,0,0,1-4.17.2l-3.1.06,0,1.32h3.16l2.82.07v0c4-.16,7,.37,12-.29,2.32,0,4.56-.42,6.87-.43l0-.18,0,.18,3.53,1.72c4.08-3.81,8.48-2.18,12.77-2.4l3.08-.09h5.42l.34-.9c-1.6-1.43-3.08-2.95-3.58-5.14-3.3-4.37-3.7-9.94-6.11-14.69-1.49-2.94-2.43-6.16-4.53-8.78h0l-.77-2.07h0c2.32-.66,1.56-2.47,1.51-4l0-1.52h0l.69,0c1.44,8.94,7,16.33,9.32,24.93a2.52,2.52,0,0,0,2.52,2,6.56,6.56,0,0,1,3.64,1c2.13.3,1.37,2,1.6,3.24s-.85,3.19,1.47,3.69a21.52,21.52,0,0,0,.78-2.56c.59-3.45,2.14-4.47,5.52-3.5,1.68.48,2.74,1.32,2.05,3.35a22.39,22.39,0,0,0-.63,3.38,2.23,2.23,0,0,1,1.2.54,2.23,2.23,0,0,0-1.2-.54l0,.07-2.26.87-2.33,0c0,.29,0,.58-.05.87-.31,4.24-3.91,2.77-6.2,3.57-.66.73-.22,1,.49,1.08.9.16,1.95-.24,2.65.68h0c1.87-.19,2.66.77,2.25,2.47-.55,2.29-2.36,1.15-3.73,1.16l-1.68,0c-7.16.19-14.3.24-21.46-.27-4.18-.3-8.41.4-12.62.45-.86,0-2.94.12-1.47-2.14,3.6-.69,7.19-3.23,10.83-.07,2.43-2.06.11-2.31-1.08-2.31-4.41,0-8.89-.1-12.94,2.18-.89,1-1,2.64-3.24,2.37-4.54-.56-9.13-.67-13.75-1.36l4.66-.56c-2.94-1.6-5.54-.75-8-1.12-1.15-.18-2.83.44-2.75-1.67a2.77,2.77,0,0,1,2.6-2.87c2.17-.22,4.37-.2,6.55-.28l0-1.32c-12,.25-11.11-2.9-14.43,11.21-.08.38-.22.74-.33,1.11l-3.21.54-.61.06-3,.13c-.71,0-1.46-.09-1.85.74,2,1.63,4.15.18,6.23.18,8.31,0,16.63,0,24.95,0,15.43-.37,30.87-.75,46.3-1,1.13,0,3.28-.93,3.13,1.42a3.41,3.41,0,0,1-3.25,3.59c-6.54.82-13.09.67-19.64.66,5.68,1.69,11.61,1.5,17.41,1.91,4.3.3,5.33,2,4.68,5.69h0c-.2.22-.4.45-.61.67h0c-5.22-.19-10.48.54-15.67-.54l-4.44-.08c-9-.33-18.09-.33-27.13.09-1.06.05-2.58.33-2.9-1.17s.82-2,2.12-2.06c.26-.27.84.34,2.54-.09,1-.32.84-1.17,2.13-1.4a1.52,1.52,0,0,1,.63-.14c1.62-.82,3.25-1.48,4.22.81.68,1.59,1.92.51,2.88.74l.23,0,.23.05a4.1,4.1,0,0,0,.18-2.76c-4.13-.45-8.27-1-12.33.45-2.51,1.07-6.46,0-6.52,4.7,0,1-1.5.75-2.33.69-5.1-.39-10.19-.85-15.56-1.3,2.11-2,4.52-1.66,6.72-2.69l-9.34-.66c-2.6-.17-5.48,1.14-7.64-1.42-.23,1.53-1,3.22-.57,4.55,1.14,3.72-.84,3.84-3.62,4.07-19.13,1.57-38.25,3.27-57.36,5-5.8.51-8.45,4.2-7.18,10.08a33.1,33.1,0,0,0,1.79,4.66c.69,1.85,2,2.35,3.91,2.3q36.49-1.08,73-2l1.49,0c4.64-.31,1.73,2,1.59,3.41,0,.6.37.54,2,.3l6.2-.53c.34,0,.51,0,.95-.1a21.24,21.24,0,0,0,4.78-.47l2.5-.36,21.49-1.41c2.05-.2,3.62.9,2,2.19l-3.52,1.88c-.69.39-.88.55-.85.92,0,.14.55.26.84.38,3.86,1.67,7.87,1.05,11.77.46a186.17,186.17,0,0,0,24.39-5.65c1-.28,2.4-1.78,3.31.11,1.11,2.28,3.88,2.75,6.4,3,1,.1,9.68-1.61,10.66-1.77,6.53-.2,12.61-2.76,19.31-4.09-.85,1.58-1.37,2.75-2.05,3.8-1.63,2.51-1.37,3.55,2,3.25,9.25-.86,18.54-.54,27.82-.62,10-.09,20.12.43,30.14-.56a32.06,32.06,0,0,0,17-6.37c-9.78-5.43-20.48-5.67-30.46-8.51,4.74-1,9.41-1.66,14.07-2.37,6.49-1,13-2,19.45-3.09,1.57-.28,3.74-.49,4-2.45s-1.71-2.74-3.11-3.57c-4-2.37-8.49-2.85-13-3-2.2-.08-2.78-.13-5.91-.38,0,0-11.26-2.94-14.81-10.54-.33-3-.65-6-1-8.89-.84-7.45-2.05-14.83-4.65-21.88-1.6-4.33-2.93-4.65-6.83-2.23a16.18,16.18,0,0,1-1.76.77c1.31-8,2.49-15.6,3.82-23.2,1.41-8.1,1.51-15.85-1.81-23.83-2.46-5.89-4.37-12.3-3.15-19.18.63-3.56.89-5,6.25-2.45,1.7.81,3.08,0,3.08-1.93h0a6,6,0,0,1,3.07-5.3c3.5-1.86,6-7.54,5-10.94-1.29-4.79-2.31-9.88-5.3-14.11.21,1.91.3,3.84.68,5.72.44,2.19-3.86,2.31-4.83,2.42-2.93.26-4.52.11-6.67.22h0c-.67-1.53-5.9-.81-6.16-.81a38.71,38.71,0,0,1-9.12-.53c-2-.33-3.84-.12-4.79,2-1-.05-3.55,1.24-3.19-1.52l1.68-7.76c-.28-1.3,4.19-5.06,5.51-6,.94-.65,6.17-1.34,6.43-2.93a12.21,12.21,0,0,1-3.09.64,7.58,7.58,0,0,1-3-.29c-.55.35-1.12,1-2.9,2.22-1.45,1.37-1.72,1.66-2.44,2.36a8.78,8.78,0,0,1-4.56,2.41,5.11,5.11,0,0,1-2.17,0c-.48.46-.68,1,.79,1.39a3.05,3.05,0,0,1,.73.59,6.7,6.7,0,0,1,1.5,5.85,1.79,1.79,0,0,1-1.09,1.45,3.26,3.26,0,0,0,1.91,1.58c-.07.5-.14,1-.2,1.51h0c-4.25.95-8.47,2.22-12.91,1.54-2.84-2-2.49-3.56.7-4.67a16.3,16.3,0,0,1-5.51.05c-4.55.12-9.1-.69-13.94.35a15.34,15.34,0,0,0,.92-7.14c-1.11,1.34-4.15,10.87-7.27,13.62a13.15,13.15,0,0,0,2.4,5.77c.3-.31.78-.31,1.08-.62a22.22,22.22,0,0,1-.22-2.62c-1.89-1.84-1.3-3.51.65-4.63a18.35,18.35,0,0,1,11.89-2.44c4.15.21,1.87,2.49,1.34,4.2,2.67,1.17,5.25-.7,7.89-.24,5.36,2.09,9.7-.72,14.16-2.93,1.08-.39,2.51-.17,2.93-1.68,4.73-1.68,9.3,0,13.91.67.88,1.46.15,1.79-1.18,1.64-6.46-.74-11.12,2.63-15.45,6.74h0l-2.05,1.49a.8.8,0,0,1-.47.31l-.15.11c2.58,2.52,2.53,2.84,3.68,3.62,0,.19,2.69,2.09,6.31,5.41,5,4.46,4.62,3.94,6.08,5.56-5.13.66-15.77.16-16.89,1,.94,4.58,1.21,9.31,2.86,13.76h0l.54,3m-91.19-27c-.72,2.42-2.28,1.26-3.64.53a13.13,13.13,0,0,0-7.14-.23c-1.93.42-3.78.47-5.26-1.17h0a13.27,13.27,0,0,1-3.17-4.59h0l-2.23-1.69h0c-.09-1.16-.1-2.26,1.51-2.29,5.18-.56,10.32-1,14,3.9l.13-.16c.62.21,1.25.4,1.37,1.18a3.86,3.86,0,0,0,2.33,1.21C212.16,180.8,212.68,182.28,212.19,183.9Zm.92,44.42c6.36-3.08.15-5.7,1.23-8.2.16-.37-.21-1-.33-1.48s0-1,0-1.49l.66-.83c1.6,0,2.05,1.6,3.13,2.33h0c0,.26,0,.52,0,.78l.88.6.07.13.63.83c.12.4.23.8.34,1.21l.62.87.09,0,1.85,1.39h0a146.21,146.21,0,0,1,4.83,15.89c0,.46,0,.92,0,1.38h0c-3.6.42-3.84-3.75-6.62-4.75-.53,1.69.86,2.79,1.3,4.14.39,1.18,1.52,2.53.23,3.5a4.92,4.92,0,0,1-4.37,1C211.88,243.84,208,230.77,213.11,228.32Zm24.17,43.12a18.55,18.55,0,0,1,2.89,6.61,71.48,71.48,0,0,0-7.61.19c-3.73.48-5.17-1-4.65-4.61h0a16.73,16.73,0,0,1,.88-1.68c.83-1.19.78-3.52,2.56-3.41C233.55,268.69,236,269.24,237.28,271.44Zm-.85-4.67c-2.85-1.43-5.16-2.7-6.92-4.78l0,0a1.6,1.6,0,0,1-1.74-1.36l-1.37-.92c-.59.15-1.6.2-1.27,1,1.66,4.26-.06,8.63.58,12.9a6.38,6.38,0,0,0,.35,1.07c1.58,3,.54,4.06-2.62,3.59-.75-.11-1.5-.18-2.24-.27h0c-.06-6.07-1.69-12-2.12-17.95-.24-3.41-.85-6.21-2.83-8.83-.34-.47-.68-.93-1-1.4-1.89-1.17-2.38-3-3.25-6.06,4,3.45,8.27,3.54,11.68,5.63,1.48.91,2.32-.47,3.5-.53h0l.8.57.19.17.59.68.69.92C231.31,256.38,236,260.35,236.43,266.77Zm0-31.93v0l-3.21,2.27c-2-.45-3.49-1.45-3.84-3.63.45.29,3.38,1.36,7.09-1.82l1.42.87Zm.79-4.51-.85.64v0h0c-2.26.67-4.4,1.87-6.88,1.62.08-1-.62-1.43-1.45-1.71-.56-1.92-2.15-3.15-3.17-4.77-.75-1.17-.69-1.87.75-2.21l.75.2h0c.3.67.92.74,1.54.82,1.16.95,2.15,2.16,3.8,2.3h0a2.3,2.3,0,0,0,2.36.57l3.74,1h0l.12,1.37h0Zm10.06,90.54-1.53.74h0c-4.74,0-9.48-.34-14.16.72l-6,0h0l-3.09.16-10.84.32h0l-14.6.56-.3-.08-1.19.05h-.23a26.88,26.88,0,0,0-12.51.54l-.61.05c-5.34.43-10.68.88-16,1.28-1.65.12-3.32.15-5,.18-1,0-2.34.05-2.63-1.06-.33-1.27,1.07-1.62,1.95-1.93,2.53-.89,5.12-1.62,7.68-2.42a1.86,1.86,0,0,0-.27-.22,1.86,1.86,0,0,1,.27.22c3.28-.35,7.47-2.29,9.6-.34,2.31,2.12,4,.93,5.95,1.15,1.33-.74,2.08-1.6.6-2.93a1,1,0,0,1-.59-.11c-6.49.13-13.05-.44-19.4,1.54-4.46.64-9.23.28-12.74,4,1.31,2.3.23,2.82-2,2.82-12.34,0-24.67,0-37.85,0a47.07,47.07,0,0,1,13.13-2l1.54-.25h0c2.53,0,5.15.42,7.75-1.24-2.85-.09-5.37-.42-7.89.08l-1.44,0h0c-4.17-.12-8.36-.7-12.48.49-1.81,0-3.62.09-5.42,0-1.17-.05-2.79.58-3.1-1.36-.24-1.57-.19-3.09,1.27-4.21a7,7,0,0,1,4-1.32c22.25-1.36,44.51-2.66,66.76-4.1,16.32-1.06,32.63-2.31,49-3.43,6.57-.45,13.14-.76,19.71-1.14,1.66-.09,3.29-.16,2.62,2.35h0l-1.46,2.4c-1.39,1.41-3.11.61-4.7.73-2.07.11-4.18-.05-6.18.72h0l-17,1-3.91-.1-2.17.09c-1.05,1-2.74.2-4.55,1.46H213l32.69,0,.74,0,.92,1.42,0,1.66C247.37,319.83,247.33,320.35,247.28,320.87Zm.14-1.56,0-1.66.08.12C247.44,318.28,247.43,318.8,247.42,319.31Zm5.81,2.32,0-.71a1.18,1.18,0,0,0,.32.4c.28,0,.36.66.36,1.49A4,4,0,0,1,253.23,321.63Zm2-8.76ZM288.39,265c-1.13,5.81-4.53,10-7,14.55C279.56,271.37,279.65,271.19,288.39,265Zm-11.75-75.45c4.77-.4,4.77-.43,3.76,4.45a15,15,0,0,0-.16,1.5h0A2.26,2.26,0,0,0,282,198c2,1.18,2.17,2.73.94,4.58-5-3.27-7.18-8.68-10.22-13.44C273.89,190.41,275.33,189.62,276.64,189.51ZM262.8,241.07l.06-7.56h0c1.34-2.54-.11-5.52,1.3-8,.06-.73.12-1.45.17-2.18,0-1-.07-2.07-.11-3.11.06-.46.11-.92.17-1.39h0c2.47.1,3.67-1.25,4-3.55.36-2.49.7-5,1-7.47l.24-1.51h0c-.95-2.17-3.48-1.18-4.94-2.34l-.32-.74v-1.4c1-1.26,3.65-2.09,1.18-4.31a.53.53,0,0,0-.3-.48h0a2,2,0,0,0-.88-1.74,1.06,1.06,0,0,0-.18-.64l-.68-.83-.31-.15-.36.1s.14-.94.32-2a5.14,5.14,0,0,1,2.63-3.61h0c1.87.74,3,2.32,4.17,3.8,3.27,4,5.49,8.86,9.92,11.89,1.37.6,3,1.05,2,3.14l.09.8-.24.1-.47.68v.08a.76.76,0,0,0,0-.15,2.78,2.78,0,0,0-1.22,1.12l-3.25,5.12-.74.83a1,1,0,0,0-.23.6l-.84.9c-1.18,1.11-.42,2.61-.79,3.88l1,.1c1.35-1.7,2.72-3.39,4.05-5.11.6-.78,1.36-1.37,2.28-.81s.33,1.32.16,2.08c-1.09,4.59-3.54,8.52-5.89,12.52-.5.85-1.83,1.55.29,2.43,1.19.5-.06,1.86-.59,2.58-1.51,2.08-3.38,3.91-4.76,6.06-1.93,3-4,6-3.47,10,.21,1.71-.28,4.13-2.48,4.13s-2.71-2.31-2.88-4.3c-.24-2.81,1.42-5.19,1.74-7.87C263.72,242,262,242.24,262.8,241.07Zm-2.06,27c-1.88-.76-4.36-.36-4.87-2.93s.52-4.81,1.61-7c.56-1.12,1.68-.34,2.39,0,2.64,1.21,5.5,2,8.12,4.48C260.78,263.12,260.4,263.4,260.74,268.07Zm-2.6,47.4c-1.91-.16-2.41-.84-.85-2.29l.94-.16h0l-.07.05c.59-.06.76.32.84.79a5.27,5.27,0,0,1,1.07,2.14C259.38,315.83,258.17,315.65,258.14,315.47Zm3.58-8.67c-3,2-4.73.56-6-2.19h0c0-.51,0-1,0-1.53l-.05-.84c.22-1,.43-2,.65-3h0l2.55-3.14,1.68-.11-.09,0c.61-.1.82.33,1,.78,2.76,3.27,2.18,6.62.23,10Zm8.73,10.85h0c-3.11,1.84-4.7,0-6-2.49l-.21-2,.72-1.67c.21-.33.4-1.26.81-.53s0,1.75.2,2.62c.27,1.53,1.2,2.69,2.79,2.65s1.75-1.6,1.87-2.87c.19-2.08,0-4-2.49-4.73-1.77-2.38-3.08-2.37-3.8.73a2,2,0,0,1,0,.26v-.27c-1.26-.38-.86-1.48-1-2.35l-.58-.05h0l1-.7c1.73-1.18,3.42-3.32,5.33-.23l1.32.41h0C271.78,310.16,273.46,313.89,270.45,317.65Zm22.47-15.4c-2.19,1.59-4.18,3.31-4.62,6.19l-.06,1c-.17,1.16-.54,2.11-2,2h0c-.77-2.41-2.8-3.57-4.78-4.79L280,305.32h0c1.2-1.44,2.48,1.11,3.69-.06-1.13-2.51-3.67-4.37-6-4.39-1.43,0-2.5.43-2.57,2.09a5.24,5.24,0,0,1-4.82-3.15c-1-2.37,2.9-1.5,3-3.71-2.31-1.56-5.51-2.39-6.46-6.27l10,3.83,2.2.93h0l4,2.16.77.06h0a20,20,0,0,0,5.47,2.62,19.4,19.4,0,0,0,.55-2.75c-1.76-.35-3.26-2.24-5.25-2.11A29.91,29.91,0,0,1,290,274.18c.78,3.6,1.69,6.71,1,9.92-.78,3.66-1.76,7.25-.58,11,.3,1-.08,1.35-.69,1.6-.23,1.13-.32,1.61-.55,2.75,1.09,1.15,3.18,1,3.76,2.82Zm8.24-14.75c-1.89-3.5-1.47-18.3.78-24.51C304,267.33,303.21,285.52,301.16,287.5Zm25.12-119.19c3.6-.56,7.12.24,10.58,1,2.28.48,4.62,2,3.87,4.64-.45,1.61.13,5.17-3.67,4.38a14.2,14.2,0,0,0-3.12-3.22c-2.84-2.23-6.42-3.08-9.23-5.28C325.23,169.3,325.75,168.8,326.28,168.31ZM307.9,179.84l-1-.69-.93-.76c-.21-1.59,1.15-2.14,2-3,4.07-4.06,9.34-2.41,14.14-3l1,.28,1.55.22h0c5-.36,7.65,3.39,10.84,6.19a16.53,16.53,0,0,1-4.07,8.44h0C322.64,188,314.88,185.14,307.9,179.84Zm6.69,139.57c-3.09-3-6.61-5.85-4-11,.68-1.32-.25-2.74-.54-4.11-1.39-6.64-2.73-13.29-4.11-19.93-.29-1.4-1.65-3.25.82-3.65,2-.34,4.55.22,4.67,2.84.4,9,3.39,17.9,1.67,27-.57,3.08,1.38,5.7,1.64,8.63l.26.46Zm6.62-50c-3.46-3.35-6.9-1.65-10.07-1.59,0-.42-.12-.83,0-.88,4-2.09,6.42-4.42,2.22-8.74-1-1-.32-2.74.84-3.82,2.92-2.73,3.64-6.43,4.33-10.08,1.91-10.11,6-19.85,5-30.51a21,21,0,0,1,3.27,16.38c-1.93,9-2.54,18.29-5.43,27.11-.15.47-.41,1.27-.22,1.43C325.54,262.34,321,265.58,321.21,269.46Z"/><path class="cls-2" d="M298.28,133.52c.07-.52.15-1,.22-1.54a2,2,0,0,0,1.66-1.11,3.81,3.81,0,0,1,2.93-.39v0c0-.52,0-1,0-1.56l0-.21c1.11-1.83,2-3.63,3.11-5.46h0c.81-.52.55-1.39.68-2.13h0c.52-.34,4.09-1.24,1.43-2.56s-8.44-.75-10.39,1c-2.54,1.9-3,5.09-4.7,7.44-2.71,3.82-2.26,7.88,1.94,10.2.9-.89,2.45-.15,3.24-1.31-.06-.77-.13-1.54-.19-2.3"/><path class="cls-30" d="M318.41,117.61c-1.9-2.26-4.27-3.15-7.08-1.49a18.63,18.63,0,0,0-3.74,3.54,26.81,26.81,0,0,0-1.86,3.3,29.49,29.49,0,0,0-2.55,5.55l-.05.37,2.36-.37h0a22.26,22.26,0,0,1,4.44-.74l1.58-.09a4.65,4.65,0,0,1,4.82,3.38v0s1.87-2.57,2.59-3.88C320.74,123.94,320.94,120.61,318.41,117.61Z"/><path class="cls-9" d="M280.87,114.66c-1.22-.78-6-.34-7.2.16l-1,0a11.67,11.67,0,0,1-5.45.78,10.7,10.7,0,0,1-4.85-.77c-2.11-.87-2.48-.35-2.37,1.66,0,3.53.17,4,.17,7.48.08,1.07-.07,4.52-.14,7,1.86-1.86,3.34-2,6.57-3.62,2.41-1.11,4.38-1.51,8.53-3.24.44,0,4.86.38,5.31.4A10.93,10.93,0,0,0,280.87,114.66Z"/><path class="cls-24" d="M259,313.86l-.84-.79.07-.05-.94.16c-1.56,1.45-1.06,2.13.85,2.29,1.44,2.14,1.1,4.28.28,6.43a1,1,0,0,1-1.09.61c-3.09-.46-3.21-2.81-2.76-5.53a2.54,2.54,0,0,1,.1-.37s.3-.48.52-.57a1.05,1.05,0,0,1,1.36.61c.13.84-.21,1.89,1,2.37.72-.87-.29-2.89-.36-2.89-.48-.6-1.22-1.29-2-1.12a2.55,2.55,0,0,0-1.52,1.19h0a3.28,3.28,0,0,0-.24.77c-.11.81-.22,1.62-.32,2.43s.06,1.48.1,2.22a4,4,0,0,0,.53,1.05,4.58,4.58,0,0,0,4,1.83h0a1.67,1.67,0,0,0,1.39-.9l.31-.61a9.93,9.93,0,0,0,1-3.5l.09-1A7.61,7.61,0,0,0,259,313.86Z"/><path class="cls-24" d="M300.92,312.66c-.19-1.48.12-2.18-.68-4.37-.75-1.72-.75-1.92-1.82-2.64,0,0-3.52-2-7.06,1.6-.69.31-.73,1-.88,1.59.52.84,2.81-1.25,2.81-1.25a3.9,3.9,0,0,1,3-.94,3.45,3.45,0,0,1,2.27,1.57,6.15,6.15,0,0,1,.59,2.28c.16,1.77.4,4.64-.74,5.22h0c-4.83.18-3.62-3.39-3.78-6.1l-.77.68a8.77,8.77,0,0,0,.08,5.89A3.23,3.23,0,0,0,297,318h0a2.88,2.88,0,0,0,2-1l.77-.84a3.58,3.58,0,0,0,.44-.51,1.22,1.22,0,0,0,.16-.23s0,0,0,0a3.46,3.46,0,0,0,.38-1.15C300.83,313.71,300.87,313.19,300.92,312.66Z"/><path class="cls-24" d="M264.76,286.13a10.41,10.41,0,0,0-.56-3.62c-.62-1.43-.62-1.6-1.51-2.2,0,0-2.92-1.62-5.86,1.33-.57.25-.6.81-.73,1.31.44.7,2.33-1,2.33-1a2.48,2.48,0,0,1,2.44-.53c.68,0,.94.35,1.36.83a4.33,4.33,0,0,1,1.08,2.57c.09,1.32.31,3.3-.65,3.88h0c-4,.15-3-2.82-3.13-5.07l-.11.1c-1.7.62-.82,4.56-.57,5.14a2.85,2.85,0,0,0,2.74,1.68h0a5,5,0,0,0,1.63-.59c.25-.1.3-.32.44-.49a2.7,2.7,0,0,0,.76-1.23l0,0h0a3.35,3.35,0,0,0,.2-.74C264.69,287,264.73,286.57,264.76,286.13Z"/><path class="cls-30" d="M309.36,152.18c2.16-1.36,2.63-1.08,4.86-1.9a12,12,0,0,0,2.7-1.29,4.77,4.77,0,0,0,1.17-1.08c.35-.4,4.62-1.43,4,.3-.36,1-9.31,5.34-10.2,6-.18.13-2,.76-3.08,1.36-.76.44-1.24,3-2.09,3.47-1,.56-1.28.11-2.08-.83-.27-1.3-.33-2.44,1-3.37C306.62,154.18,309,152.79,309.36,152.18Z"/><path class="cls-30" d="M296.19,152.16a3.55,3.55,0,0,1,.18-3.42l1.21-2.15c-1.44-1.19-.46-2.89-.92-4.28-2,1.62-3.39,1.28-6.89,2.05a3.44,3.44,0,0,0-2.61,2c.28.91.13,2,1.41,2.4,2.52.78,3.92,2.86,5.4,4.83h0c.49.7,1,1.4,1.48,2.11.15,1.91.72,3.24,3,2.24.2-.08.49.05.74.09h0C297.08,153.6,296.19,152.16,296.19,152.16Z"/><path class="cls-31" d="M309.23,139.06a10.74,10.74,0,0,0,4.69.45c-.32-1-1.91-1.07-2.32-1C310.83,138.4,309.45,138,309.23,139.06Z"/><path class="cls-15" d="M309.73,140.93s2.77-.34,3.87.39c0,0-.43.52-1.66-.1C311.94,141.22,310.37,141.5,309.73,140.93Z"/><ellipse class="cls-32" cx="309.76" cy="132.3" rx="1.17" ry="0.75" transform="translate(22.53 308.24) rotate(-54.62)"/><path class="cls-32" d="M310.38,132.74a1.77,1.77,0,0,1-.56.53.7.7,0,0,1-.76,0,.75.75,0,0,1-.23-.73,2,2,0,0,1,.29-.71,1.61,1.61,0,0,1,.57-.53.75.75,0,0,1,.78,0,.7.7,0,0,1,.22.73A1.59,1.59,0,0,1,310.38,132.74Zm0,0c.27-.4.42-1,0-1.36s-1,.13-1.24.5-.47,1-.07,1.35S310.08,133.12,310.37,132.74Z"/><ellipse class="cls-33" cx="310.67" cy="130.77" rx="2.31" ry="1.42"/><path class="cls-32" d="M308.07,131.91s.87-.29,1.34.13a2.19,2.19,0,0,0,2.66-.34,5,5,0,0,1-1.59,0C310.12,131.49,308.56,131,308.07,131.91Z"/><path class="cls-32" d="M308.07,131.9a1.86,1.86,0,0,1,1.07-.06,3,3,0,0,1,.47.27,2,2,0,0,0,.49.17,2.11,2.11,0,0,0,1.95-.59l0,0a7.45,7.45,0,0,1-1.06.07,1.7,1.7,0,0,1-.54-.09,4.24,4.24,0,0,0-.5-.18,3.28,3.28,0,0,0-1-.13A1.11,1.11,0,0,0,308.07,131.9Zm0,0a1,1,0,0,1,.86-.58,2.76,2.76,0,0,1,1.07.11l.51.18a1.39,1.39,0,0,0,.5.09c.35,0,.71,0,1.06,0h.07l-.05.05a2.29,2.29,0,0,1-2,.63,1.57,1.57,0,0,1-.52-.16c-.17-.09-.28-.23-.45-.28A2,2,0,0,0,308.07,131.91Z"/><ellipse class="cls-32" cx="314.72" cy="132.85" rx="0.79" ry="0.59" transform="translate(67.32 368.42) rotate(-66.48)"/><path class="cls-32" d="M315.27,133.09c-.12.31-.47.69-.88.52a.79.79,0,0,1-.23-1,.64.64,0,1,1,1.11.49Zm0,0a.72.72,0,0,0-.24-.91c-.32-.13-.67.15-.81.46a.65.65,0,0,0,.21.91A.73.73,0,0,0,315.26,133.08Z"/><ellipse class="cls-33" cx="314.84" cy="132" rx="0.7" ry="0.45" transform="translate(-20.41 67.56) rotate(-11.87)"/><path class="cls-32" d="M316.2,132.69a1.49,1.49,0,0,0-1.07-.15,2,2,0,0,1-2-.68,4.81,4.81,0,0,0,1.25.25C314.67,132.06,316,132,316.2,132.69Z"/><path class="cls-32" d="M316.21,132.69a2,2,0,0,0-.82-.18,2.19,2.19,0,0,0-.4.11,1.55,1.55,0,0,1-.43,0,2.06,2.06,0,0,1-1.47-.77l0-.05.06,0c.27.08.54.14.81.2a2.88,2.88,0,0,0,.83,0,2.65,2.65,0,0,1,.84.1A.89.89,0,0,1,316.21,132.69Zm0,0a.87.87,0,0,0-.62-.49,3.22,3.22,0,0,0-.82-.08,2.63,2.63,0,0,1-.84,0,5.87,5.87,0,0,1-.82-.23l0,0a1.77,1.77,0,0,0,1.44.73,1.42,1.42,0,0,0,.41,0,1.65,1.65,0,0,1,.41-.09A1.58,1.58,0,0,1,316.2,132.68Z"/><path class="cls-33" d="M312.48,133.12a5.51,5.51,0,0,0,.56,1.24c.28.44.73.8,1.08,1.27a1.18,1.18,0,0,1,.17,1.34,1.71,1.71,0,0,1-1.81.29,5.45,5.45,0,0,0-1.34-.45c-.18-.1-.42-.16-.72-.84"/><path class="cls-34" d="M312.48,133.12a4.71,4.71,0,0,0,.95,1.69c.42.47,1,.92,1.05,1.63a.8.8,0,0,1-.11.5,1,1,0,0,1-.4.32,2,2,0,0,1-1,.18,2.72,2.72,0,0,1-.93-.33,5.67,5.67,0,0,0-.94-.27h0a1.19,1.19,0,0,1-.44-.36,2.08,2.08,0,0,1-.27-.51,2.18,2.18,0,0,0,.29.49,1.15,1.15,0,0,0,.45.33h0a6.9,6.9,0,0,1,.94.25,2.63,2.63,0,0,0,.9.32,2,2,0,0,0,.93-.19.69.69,0,0,0,.46-.72c0-.66-.58-1.12-1-1.6A4.24,4.24,0,0,1,312.48,133.12Z"/></svg>